<svg width="21" height="22" viewBox="0 0 21 22" fill="none" xmlns="http://www.w3.org/2000/svg">
<path d="M9.82936 1.55618C10.2915 1.08225 10.8431 0.704805 11.4523 0.445733C12.0614 0.186662 12.7159 0.0511206 13.3778 0.0469732C14.0398 0.0428257 14.6959 0.170154 15.3083 0.421573C15.9206 0.672991 16.4769 1.04349 16.9449 1.51159C17.413 1.97969 17.7834 2.53606 18.0347 3.14843C18.2861 3.7608 18.4133 4.41698 18.4091 5.07891C18.4048 5.74084 18.2692 6.39534 18.01 7.00444C17.7509 7.61354 17.3733 8.16512 16.8994 8.62718L9.12236 16.4052C8.84465 16.6875 8.51379 16.9121 8.14887 17.0659C7.78394 17.2197 7.39217 17.2998 6.99615 17.3014C6.60014 17.3031 6.20771 17.2263 5.84151 17.0756C5.47531 16.9248 5.14258 16.703 4.86251 16.423C4.58245 16.143 4.3606 15.8104 4.20975 15.4442C4.0589 15.078 3.98204 14.6856 3.98361 14.2896C3.98517 13.8936 4.06513 13.5018 4.21887 13.1368C4.37261 12.7719 4.59709 12.4409 4.87936 12.1632L12.6574 4.38518L14.0714 5.79918L6.29336 13.5772C6.19785 13.6694 6.12167 13.7798 6.06926 13.9018C6.01685 14.0238 5.98926 14.155 5.98811 14.2878C5.98695 14.4206 6.01225 14.5522 6.06254 14.6751C6.11282 14.798 6.18707 14.9097 6.28096 15.0036C6.37485 15.0975 6.48651 15.1717 6.6094 15.222C6.7323 15.2723 6.86398 15.2976 6.99676 15.2964C7.12954 15.2953 7.26076 15.2677 7.38276 15.2153C7.50477 15.1629 7.61511 15.0867 7.70736 14.9912L15.4864 7.21318C15.765 6.93458 15.986 6.60383 16.1367 6.23982C16.2875 5.87582 16.3651 5.48567 16.3651 5.09168C16.3651 4.69768 16.2875 4.30754 16.1367 3.94353C15.986 3.57952 15.765 3.24877 15.4864 2.97018C15.2078 2.69158 14.877 2.47058 14.513 2.3198C14.149 2.16903 13.7589 2.09142 13.3649 2.09142C12.9709 2.09142 12.5807 2.16903 12.2167 2.3198C11.8527 2.47058 11.522 2.69158 11.2434 2.97018L3.46536 10.7492C2.55457 11.6922 2.05059 12.9552 2.06199 14.2662C2.07338 15.5772 2.59922 16.8312 3.52626 17.7583C4.4533 18.6853 5.70737 19.2112 7.01835 19.2225C8.32933 19.2339 9.59235 18.73 10.5354 17.8192L19.0214 9.33418L20.4354 10.7492L11.9504 19.2342C10.6375 20.547 8.85697 21.2845 7.00036 21.2845C5.14375 21.2845 3.36318 20.547 2.05036 19.2342C0.737535 17.9214 1.38328e-08 16.1408 0 14.2842C-1.38328e-08 12.4276 0.737535 10.647 2.05036 9.33418L9.82936 1.55618Z" fill="black"/>
</svg>
