<svg width="25" height="25" viewBox="0 0 25 25" fill="none" xmlns="http://www.w3.org/2000/svg">
<path d="M22.9924 9.36925L20.4748 2.20507C20.3159 1.71223 20.0145 1.28335 19.6125 0.97785C19.2104 0.67235 18.7276 0.505354 18.2309 0.5H6.4637C5.97358 0.501153 5.49561 0.659772 5.09433 0.95444C4.69304 1.24911 4.38777 1.66563 4.21973 2.14776L1.7021 9.31194C1.2981 9.51441 0.956025 9.83086 0.714316 10.2257C0.472606 10.6206 0.340842 11.0782 0.33383 11.5472V17.9949C0.325972 18.4141 0.419752 18.8284 0.6064 19.1993C0.793048 19.5702 1.06647 19.8854 1.40108 20.1155V20.2015V23.0672C1.40108 23.4472 1.54524 23.8116 1.80184 24.0803C2.05844 24.349 2.40647 24.5 2.76936 24.5H4.13763C4.50052 24.5 4.84855 24.349 5.10515 24.0803C5.36175 23.8116 5.5059 23.4472 5.5059 23.0672V20.5597H19.1886V23.0672C19.1886 23.4472 19.3328 23.8116 19.5894 24.0803C19.846 24.349 20.194 24.5 20.5569 24.5H21.9252C22.2881 24.5 22.6361 24.349 22.8927 24.0803C23.1493 23.8116 23.2935 23.4472 23.2935 23.0672V20.1155C23.6152 19.8874 23.8783 19.5798 24.0597 19.22C24.2411 18.8602 24.335 18.4591 24.3334 18.0522V11.6045C24.3289 11.1385 24.2012 10.683 23.9645 10.2885C23.7278 9.89391 23.3913 9.57573 22.9924 9.36925ZM22.2673 18.0522C22.2673 18.1472 22.2312 18.2384 22.1671 18.3055C22.1029 18.3727 22.0159 18.4104 21.9252 18.4104H2.76936C2.67864 18.4104 2.59163 18.3727 2.52748 18.3055C2.46333 18.2384 2.42729 18.1472 2.42729 18.0522V11.6045C2.42729 11.5095 2.46333 11.4184 2.52748 11.3512C2.59163 11.284 2.67864 11.2463 2.76936 11.2463H21.9252C22.0159 11.2463 22.1029 11.284 22.1671 11.3512C22.2312 11.4184 22.2673 11.5095 22.2673 11.6045V18.0522ZM6.14899 2.87851C6.17359 2.81175 6.21671 2.75424 6.2728 2.71338C6.32889 2.67252 6.39538 2.65018 6.4637 2.64925H18.2309C18.2992 2.65018 18.3657 2.67252 18.4218 2.71338C18.4778 2.75424 18.521 2.81175 18.5456 2.87851L20.4611 8.3806H4.23341L6.14899 2.87851Z" fill="white"/>
<path d="M6.87419 16.9782C8.0077 16.9782 8.9266 16.0159 8.9266 14.8289C8.9266 13.6419 8.0077 12.6797 6.87419 12.6797C5.74067 12.6797 4.82178 13.6419 4.82178 14.8289C4.82178 16.0159 5.74067 16.9782 6.87419 16.9782Z" fill="white"/>
<path d="M17.8204 16.9782C18.9539 16.9782 19.8728 16.0159 19.8728 14.8289C19.8728 13.6419 18.9539 12.6797 17.8204 12.6797C16.6868 12.6797 15.7679 13.6419 15.7679 14.8289C15.7679 16.0159 16.6868 16.9782 17.8204 16.9782Z" fill="white"/>
</svg>
