<svg width="24" height="33" viewBox="0 0 24 33" fill="none" xmlns="http://www.w3.org/2000/svg">
    <rect y="0.5" width="24" height="32" rx="8" fill="#5454FF"/>
    <path d="M12.0026 16.1654C11.5606 16.1654 11.1367 15.9898 10.8241 15.6772C10.5115 15.3646 10.3359 14.9407 10.3359 14.4987C10.3359 14.0567 10.5115 13.6327 10.8241 13.3202C11.1367 13.0076 11.5606 12.832 12.0026 12.832C12.4446 12.832 12.8686 13.0076 13.1811 13.3202C13.4937 13.6327 13.6693 14.0567 13.6693 14.4987C13.6693 14.7176 13.6262 14.9343 13.5424 15.1365C13.4586 15.3387 13.3359 15.5224 13.1811 15.6772C13.0264 15.832 12.8426 15.9547 12.6404 16.0385C12.4382 16.1223 12.2215 16.1654 12.0026 16.1654ZM12.0026 9.83203C10.7649 9.83203 9.57794 10.3237 8.70277 11.1989C7.8276 12.074 7.33594 13.261 7.33594 14.4987C7.33594 17.9987 12.0026 23.1654 12.0026 23.1654C12.0026 23.1654 16.6693 17.9987 16.6693 14.4987C16.6693 13.261 16.1776 12.074 15.3024 11.1989C14.4273 10.3237 13.2403 9.83203 12.0026 9.83203Z" fill="white"/>
</svg>
