<svg width="103" height="33" viewBox="0 0 103 33" fill="none" xmlns="http://www.w3.org/2000/svg">
    <rect y="0.5" width="103" height="32" rx="8" fill="#5454FF"/>
    <path d="M26 10.5H14C12.8954 10.5 12 11.3954 12 12.5V20.5C12 21.6046 12.8954 22.5 14 22.5H26C27.1046 22.5 28 21.6046 28 20.5V12.5C28 11.3954 27.1046 10.5 26 10.5Z" stroke="white"/>
    <path d="M12 13.5L19.106 17.053C19.3836 17.1917 19.6897 17.2639 20 17.2639C20.3103 17.2639 20.6164 17.1917 20.894 17.053L28 13.5" stroke="white"/>
    <path d="M40.2834 22V15.35H41.5434V22H40.2834ZM44.7774 22V17.982C44.7774 17.4873 44.6234 17.1 44.3154 16.82C44.0167 16.5307 43.6387 16.386 43.1814 16.386C42.8734 16.386 42.598 16.4513 42.3554 16.582C42.1127 16.7127 41.9167 16.8947 41.7674 17.128C41.618 17.3613 41.5434 17.6413 41.5434 17.968L41.0254 17.716C41.0254 17.212 41.1327 16.7733 41.3474 16.4C41.5714 16.0267 41.8747 15.7373 42.2574 15.532C42.64 15.3173 43.0694 15.21 43.5454 15.21C44.012 15.21 44.432 15.3127 44.8054 15.518C45.188 15.7233 45.4867 16.0127 45.7014 16.386C45.9254 16.7593 46.0374 17.2027 46.0374 17.716V22H44.7774ZM49.2714 22V17.982C49.2714 17.4873 49.1174 17.1 48.8094 16.82C48.5107 16.5307 48.1374 16.386 47.6894 16.386C47.3814 16.386 47.1014 16.4513 46.8494 16.582C46.6067 16.7127 46.4107 16.8947 46.2614 17.128C46.112 17.3613 46.0374 17.6413 46.0374 17.968L45.3234 17.716C45.3514 17.2027 45.4867 16.764 45.7294 16.4C45.9814 16.0267 46.3034 15.7373 46.6954 15.532C47.0874 15.3173 47.5167 15.21 47.9834 15.21C48.4687 15.21 48.9027 15.3127 49.2854 15.518C49.668 15.7233 49.9714 16.0127 50.1954 16.386C50.4287 16.7593 50.5454 17.2073 50.5454 17.73V22H49.2714ZM55.3399 22.14C54.6773 22.14 54.0799 21.9907 53.5479 21.692C53.0159 21.384 52.5959 20.9687 52.2879 20.446C51.9799 19.9233 51.8259 19.3307 51.8259 18.668C51.8259 18.0147 51.9753 17.4267 52.2739 16.904C52.5819 16.3813 52.9926 15.9707 53.5059 15.672C54.0286 15.364 54.6119 15.21 55.2559 15.21C55.8719 15.21 56.4133 15.35 56.8799 15.63C57.3559 15.91 57.7246 16.2973 57.9859 16.792C58.2566 17.2867 58.3919 17.8467 58.3919 18.472C58.3919 18.5653 58.3873 18.668 58.3779 18.78C58.3686 18.8827 58.3499 19.004 58.3219 19.144H52.7079V18.094H57.6499L57.1879 18.5C57.1879 18.052 57.1086 17.674 56.9499 17.366C56.7913 17.0487 56.5673 16.806 56.2779 16.638C55.9886 16.4607 55.6386 16.372 55.2279 16.372C54.7986 16.372 54.4206 16.4653 54.0939 16.652C53.7673 16.8387 53.5153 17.1 53.3379 17.436C53.1606 17.772 53.0719 18.1687 53.0719 18.626C53.0719 19.0927 53.1653 19.5033 53.3519 19.858C53.5386 20.2033 53.8046 20.474 54.1499 20.67C54.4953 20.8567 54.8919 20.95 55.3399 20.95C55.7133 20.95 56.0539 20.8847 56.3619 20.754C56.6793 20.6233 56.9499 20.4273 57.1739 20.166L57.9859 20.992C57.6686 21.3653 57.2766 21.65 56.8099 21.846C56.3526 22.042 55.8626 22.14 55.3399 22.14ZM61.8798 22.14C61.5065 22.14 61.1518 22.0933 60.8158 22C60.4891 21.8973 60.1858 21.7573 59.9058 21.58C59.6258 21.3933 59.3831 21.174 59.1778 20.922L59.9898 20.11C60.2325 20.4087 60.5125 20.6327 60.8298 20.782C61.1471 20.922 61.5018 20.992 61.8938 20.992C62.2858 20.992 62.5891 20.9267 62.8038 20.796C63.0185 20.656 63.1258 20.4647 63.1258 20.222C63.1258 19.9793 63.0371 19.7927 62.8598 19.662C62.6918 19.522 62.4725 19.41 62.2018 19.326C61.9311 19.2327 61.6418 19.144 61.3338 19.06C61.0351 18.9667 60.7505 18.85 60.4798 18.71C60.2091 18.57 59.9851 18.3787 59.8078 18.136C59.6398 17.8933 59.5558 17.5713 59.5558 17.17C59.5558 16.7687 59.6538 16.4233 59.8498 16.134C60.0458 15.8353 60.3165 15.6067 60.6618 15.448C61.0165 15.2893 61.4411 15.21 61.9358 15.21C62.4585 15.21 62.9205 15.3033 63.3218 15.49C63.7325 15.6673 64.0685 15.938 64.3298 16.302L63.5178 17.114C63.3311 16.8713 63.0978 16.6847 62.8178 16.554C62.5471 16.4233 62.2391 16.358 61.8938 16.358C61.5298 16.358 61.2498 16.4233 61.0538 16.554C60.8671 16.6753 60.7738 16.848 60.7738 17.072C60.7738 17.296 60.8578 17.4687 61.0258 17.59C61.1938 17.7113 61.4131 17.814 61.6838 17.898C61.9638 17.982 62.2531 18.0707 62.5518 18.164C62.8505 18.248 63.1351 18.3647 63.4058 18.514C63.6765 18.6633 63.8958 18.864 64.0638 19.116C64.2411 19.368 64.3298 19.6993 64.3298 20.11C64.3298 20.7353 64.1058 21.23 63.6578 21.594C63.2191 21.958 62.6265 22.14 61.8798 22.14ZM67.8544 22.14C67.4811 22.14 67.1264 22.0933 66.7904 22C66.4637 21.8973 66.1604 21.7573 65.8804 21.58C65.6004 21.3933 65.3577 21.174 65.1524 20.922L65.9644 20.11C66.2071 20.4087 66.4871 20.6327 66.8044 20.782C67.1217 20.922 67.4764 20.992 67.8684 20.992C68.2604 20.992 68.5637 20.9267 68.7784 20.796C68.9931 20.656 69.1004 20.4647 69.1004 20.222C69.1004 19.9793 69.0117 19.7927 68.8344 19.662C68.6664 19.522 68.4471 19.41 68.1764 19.326C67.9057 19.2327 67.6164 19.144 67.3084 19.06C67.0097 18.9667 66.7251 18.85 66.4544 18.71C66.1837 18.57 65.9597 18.3787 65.7824 18.136C65.6144 17.8933 65.5304 17.5713 65.5304 17.17C65.5304 16.7687 65.6284 16.4233 65.8244 16.134C66.0204 15.8353 66.2911 15.6067 66.6364 15.448C66.9911 15.2893 67.4157 15.21 67.9104 15.21C68.4331 15.21 68.8951 15.3033 69.2964 15.49C69.7071 15.6673 70.0431 15.938 70.3044 16.302L69.4924 17.114C69.3057 16.8713 69.0724 16.6847 68.7924 16.554C68.5217 16.4233 68.2137 16.358 67.8684 16.358C67.5044 16.358 67.2244 16.4233 67.0284 16.554C66.8417 16.6753 66.7484 16.848 66.7484 17.072C66.7484 17.296 66.8324 17.4687 67.0004 17.59C67.1684 17.7113 67.3877 17.814 67.6584 17.898C67.9384 17.982 68.2277 18.0707 68.5264 18.164C68.8251 18.248 69.1097 18.3647 69.3804 18.514C69.6511 18.6633 69.8704 18.864 70.0384 19.116C70.2157 19.368 70.3044 19.6993 70.3044 20.11C70.3044 20.7353 70.0804 21.23 69.6324 21.594C69.1937 21.958 68.6011 22.14 67.8544 22.14ZM74.543 22.14C73.9363 22.14 73.3857 21.9907 72.891 21.692C72.3963 21.384 72.0043 20.9687 71.715 20.446C71.435 19.9233 71.295 19.3353 71.295 18.682C71.295 18.0287 71.435 17.4407 71.715 16.918C72.0043 16.3953 72.3917 15.98 72.877 15.672C73.3717 15.364 73.927 15.21 74.543 15.21C75.047 15.21 75.495 15.3173 75.887 15.532C76.2883 15.7373 76.6103 16.0267 76.853 16.4C77.0957 16.764 77.231 17.1887 77.259 17.674V19.676C77.231 20.152 77.0957 20.5767 76.853 20.95C76.6197 21.3233 76.3023 21.6173 75.901 21.832C75.509 22.0373 75.0563 22.14 74.543 22.14ZM74.753 20.95C75.3783 20.95 75.8823 20.74 76.265 20.32C76.6477 19.8907 76.839 19.3447 76.839 18.682C76.839 18.2247 76.7503 17.828 76.573 17.492C76.405 17.1467 76.1623 16.8807 75.845 16.694C75.5277 16.498 75.159 16.4 74.739 16.4C74.319 16.4 73.9457 16.498 73.619 16.694C73.3017 16.89 73.0497 17.1607 72.863 17.506C72.6857 17.842 72.597 18.2293 72.597 18.668C72.597 19.116 72.6857 19.5127 72.863 19.858C73.0497 20.194 73.3063 20.46 73.633 20.656C73.9597 20.852 74.333 20.95 74.753 20.95ZM76.755 22V20.208L76.993 18.584L76.755 16.974V15.35H78.029V22H76.755ZM82.6215 24.926C81.9401 24.926 81.3335 24.8 80.8015 24.548C80.2788 24.296 79.8588 23.9413 79.5415 23.484L80.3535 22.658C80.6241 23.0033 80.9461 23.2647 81.3195 23.442C81.6928 23.6287 82.1361 23.722 82.6495 23.722C83.3308 23.722 83.8675 23.54 84.2595 23.176C84.6608 22.8213 84.8615 22.3407 84.8615 21.734V20.082L85.0855 18.584L84.8615 17.1V15.35H86.1215V21.734C86.1215 22.3687 85.9721 22.924 85.6735 23.4C85.3841 23.876 84.9735 24.2493 84.4415 24.52C83.9188 24.7907 83.3121 24.926 82.6215 24.926ZM82.6215 21.888C82.0148 21.888 81.4688 21.7433 80.9835 21.454C80.5075 21.1647 80.1295 20.768 79.8495 20.264C79.5695 19.7507 79.4295 19.1767 79.4295 18.542C79.4295 17.9073 79.5695 17.3427 79.8495 16.848C80.1295 16.344 80.5075 15.9473 80.9835 15.658C81.4688 15.3593 82.0148 15.21 82.6215 15.21C83.1441 15.21 83.6061 15.3127 84.0075 15.518C84.4088 15.7233 84.7261 16.0127 84.9595 16.386C85.2021 16.75 85.3328 17.1793 85.3515 17.674V19.438C85.3235 19.9233 85.1881 20.3527 84.9455 20.726C84.7121 21.09 84.3948 21.3747 83.9935 21.58C83.5921 21.7853 83.1348 21.888 82.6215 21.888ZM82.8735 20.698C83.2841 20.698 83.6435 20.6093 83.9515 20.432C84.2688 20.2547 84.5115 20.0073 84.6795 19.69C84.8475 19.3633 84.9315 18.9853 84.9315 18.556C84.9315 18.1267 84.8428 17.7533 84.6655 17.436C84.4975 17.1093 84.2595 16.8573 83.9515 16.68C83.6435 16.4933 83.2795 16.4 82.8595 16.4C82.4395 16.4 82.0708 16.4933 81.7535 16.68C81.4361 16.8573 81.1841 17.1093 80.9975 17.436C80.8201 17.7533 80.7315 18.122 80.7315 18.542C80.7315 18.962 80.8201 19.3353 80.9975 19.662C81.1841 19.9887 81.4361 20.2453 81.7535 20.432C82.0801 20.6093 82.4535 20.698 82.8735 20.698ZM91.0509 22.14C90.3882 22.14 89.7909 21.9907 89.2589 21.692C88.7269 21.384 88.3069 20.9687 87.9989 20.446C87.6909 19.9233 87.5369 19.3307 87.5369 18.668C87.5369 18.0147 87.6862 17.4267 87.9849 16.904C88.2929 16.3813 88.7035 15.9707 89.2169 15.672C89.7395 15.364 90.3229 15.21 90.9669 15.21C91.5829 15.21 92.1242 15.35 92.5909 15.63C93.0669 15.91 93.4355 16.2973 93.6969 16.792C93.9675 17.2867 94.1029 17.8467 94.1029 18.472C94.1029 18.5653 94.0982 18.668 94.0889 18.78C94.0795 18.8827 94.0609 19.004 94.0329 19.144H88.4189V18.094H93.3609L92.8989 18.5C92.8989 18.052 92.8195 17.674 92.6609 17.366C92.5022 17.0487 92.2782 16.806 91.9889 16.638C91.6995 16.4607 91.3495 16.372 90.9389 16.372C90.5095 16.372 90.1315 16.4653 89.8049 16.652C89.4782 16.8387 89.2262 17.1 89.0489 17.436C88.8715 17.772 88.7829 18.1687 88.7829 18.626C88.7829 19.0927 88.8762 19.5033 89.0629 19.858C89.2495 20.2033 89.5155 20.474 89.8609 20.67C90.2062 20.8567 90.6029 20.95 91.0509 20.95C91.4242 20.95 91.7649 20.8847 92.0729 20.754C92.3902 20.6233 92.6609 20.4273 92.8849 20.166L93.6969 20.992C93.3795 21.3653 92.9875 21.65 92.5209 21.846C92.0635 22.042 91.5735 22.14 91.0509 22.14Z" fill="white"/>
</svg>
