<svg width="21" height="25" viewBox="0 0 21 25" fill="none" xmlns="http://www.w3.org/2000/svg">
    <path fill-rule="evenodd" clip-rule="evenodd" d="M15.75 22.3192H5.25C4.55381 22.3192 3.88613 22.0483 3.39384 21.566C2.90156 21.0838 2.625 20.4298 2.625 19.7478V6.03348C2.625 5.3515 2.90156 4.69744 3.39384 4.21521C3.88613 3.73297 4.55381 3.46205 5.25 3.46205H10.0747C10.4197 3.46213 10.7612 3.52878 11.0797 3.6582C11.3983 3.78763 11.6878 3.97729 11.9315 4.21634L17.6068 9.77405C18.0985 10.2561 18.3749 10.9097 18.375 11.5912V19.7478C18.375 20.4298 18.0984 21.0838 17.6062 21.566C17.1139 22.0483 16.4462 22.3192 15.75 22.3192ZM19.4618 7.9552C19.9495 8.43285 20.3364 8.99996 20.6003 9.62414C20.8643 10.2483 21.0001 10.9173 21 11.5929V19.7478C21 21.1117 20.4469 22.4198 19.4623 23.3843C18.4777 24.3488 17.1424 24.8906 15.75 24.8906H5.25C3.85761 24.8906 2.52226 24.3488 1.53769 23.3843C0.553124 22.4198 0 21.1117 0 19.7478V6.03348C0 4.66951 0.553124 3.36141 1.53769 2.39693C2.52226 1.43246 3.85761 0.890625 5.25 0.890625H10.0747C10.7644 0.890544 11.4474 1.02358 12.0845 1.28213C12.7217 1.54068 13.3006 1.91969 13.7882 2.39748L19.4618 7.9552ZM7.42525 8.62034C7.90125 8.27234 8.46825 8.03234 9.0965 7.8952V7.3192C9.0965 6.9782 9.23478 6.65118 9.48092 6.41006C9.72706 6.16894 10.0609 6.03348 10.409 6.03348C10.7571 6.03348 11.0909 6.16894 11.3371 6.41006C11.5832 6.65118 11.7215 6.9782 11.7215 7.3192V7.85234C12.6613 8.01862 13.4242 8.38205 14.0122 8.90834C14.1393 9.02248 14.2422 9.16002 14.3151 9.31311C14.3879 9.4662 14.4292 9.63184 14.4367 9.80058C14.4442 9.96932 14.4176 10.1378 14.3586 10.2965C14.2996 10.4552 14.2093 10.601 14.0928 10.7255C13.9762 10.85 13.8358 10.9508 13.6795 11.0221C13.5233 11.0934 13.3542 11.1339 13.1819 11.1413C13.0097 11.1486 12.8376 11.1226 12.6756 11.0648C12.5136 11.007 12.3648 10.9185 12.2378 10.8043C12.0033 10.5935 11.5168 10.3243 10.5 10.3243C9.688 10.3243 9.226 10.5129 9.00025 10.6775C8.80425 10.8215 8.743 10.9723 8.743 11.1472C8.743 11.1712 8.743 11.1849 8.771 11.2209C8.86199 11.3289 8.97454 11.4176 9.10175 11.4815C9.50425 11.7129 10.1045 11.8963 10.7677 12.0301L10.8553 12.0489C11.5448 12.1878 12.5283 12.3866 13.3403 12.7929C14.2555 13.2506 15.19 14.1009 15.19 15.5512C15.19 16.8369 14.371 17.7163 13.475 18.2083C12.9465 18.4998 12.341 18.6883 11.7215 18.7946V19.3192C11.7215 19.6602 11.5832 19.9872 11.3371 20.2283C11.0909 20.4695 10.7571 20.6049 10.409 20.6049C10.0609 20.6049 9.72706 20.4695 9.48092 20.2283C9.23478 19.9872 9.0965 19.6602 9.0965 19.3192V18.7209C8.53286 18.5799 7.99336 18.3587 7.49525 18.0643C6.685 17.5826 5.943 16.8575 5.63325 15.9626C5.57557 15.8021 5.55101 15.6319 5.56099 15.462C5.57097 15.292 5.61529 15.1257 5.69139 14.9727C5.76749 14.8197 5.87384 14.683 6.00429 14.5706C6.13473 14.4581 6.28667 14.3722 6.45129 14.3177C6.6159 14.2632 6.78992 14.2413 6.96325 14.2533C7.13658 14.2652 7.30577 14.3107 7.461 14.3872C7.61623 14.4636 7.75441 14.5695 7.86754 14.6987C7.98067 14.8279 8.06648 14.9778 8.12 15.1398C8.16725 15.2769 8.37725 15.5803 8.86025 15.8683C9.31875 16.1426 9.9015 16.3226 10.5 16.3226C11.2 16.3226 11.809 16.1752 12.1905 15.9643C12.5545 15.7655 12.565 15.6146 12.565 15.5512C12.565 15.4141 12.551 15.2855 12.1467 15.0832C11.676 14.8483 11.0215 14.7095 10.234 14.5483C9.485 14.3958 8.54875 14.1455 7.77 13.6981C6.9895 13.2472 6.118 12.4381 6.118 11.1472C6.118 10.1409 6.587 9.23577 7.42525 8.62034Z" fill="#5454FF"/>
</svg>
