<svg width="47" height="42" viewBox="0 0 47 42" fill="none" xmlns="http://www.w3.org/2000/svg">
<rect x="0.4" y="0.4" width="46.2" height="41.2" rx="7.6" fill="#F5F9FE"/>
<rect x="0.4" y="0.4" width="46.2" height="41.2" rx="7.6" stroke="#DFE3E7" stroke-width="0.8"/>
<path fill-rule="evenodd" clip-rule="evenodd" d="M19.3095 14.1914C19.8881 14.1914 20.3571 14.6604 20.3571 15.239V17.3343C20.3571 17.9128 19.8881 18.3819 19.3095 18.3819C18.7309 18.3819 18.2619 17.9128 18.2619 17.3343V15.239C18.2619 14.6604 18.7309 14.1914 19.3095 14.1914Z" stroke="#151515" stroke-width="1.3" stroke-linecap="round" stroke-linejoin="round"/>
<path d="M31.881 16.2852H20.3571" stroke="#151515" stroke-width="1.3" stroke-linecap="round" stroke-linejoin="round"/>
<path d="M18.2619 16.2852H15.119" stroke="#151515" stroke-width="1.3" stroke-linecap="round" stroke-linejoin="round"/>
<path fill-rule="evenodd" clip-rule="evenodd" d="M19.3095 24.668C19.8881 24.668 20.3571 25.137 20.3571 25.7156V27.8108C20.3571 28.3894 19.8881 28.8584 19.3095 28.8584C18.7309 28.8584 18.2619 28.3894 18.2619 27.8108V25.7156C18.2619 25.137 18.7309 24.668 19.3095 24.668Z" stroke="#151515" stroke-width="1.3" stroke-linecap="round" stroke-linejoin="round"/>
<path d="M31.881 26.7617H20.3571" stroke="#151515" stroke-width="1.3" stroke-linecap="round" stroke-linejoin="round"/>
<path d="M18.2619 26.7617H15.119" stroke="#151515" stroke-width="1.3" stroke-linecap="round" stroke-linejoin="round"/>
<path fill-rule="evenodd" clip-rule="evenodd" d="M27.6905 19.4297C28.2691 19.4297 28.7381 19.8987 28.7381 20.4773V22.5725C28.7381 23.1511 28.2691 23.6202 27.6905 23.6202C27.1119 23.6202 26.6429 23.1511 26.6429 22.5725V20.4773C26.6429 19.8987 27.1119 19.4297 27.6905 19.4297Z" stroke="#151515" stroke-width="1.3" stroke-linecap="round" stroke-linejoin="round"/>
<path d="M26.6429 21.5234H15.119" stroke="#151515" stroke-width="1.3" stroke-linecap="round" stroke-linejoin="round"/>
<path d="M31.881 21.5234H28.7381" stroke="#151515" stroke-width="1.3" stroke-linecap="round" stroke-linejoin="round"/>
</svg>
