<svg width="24" height="24" viewBox="0 0 24 24" fill="none" xmlns="http://www.w3.org/2000/svg">
    <rect width="24" height="24" rx="4" fill="#8A8AFF"/>
    <path d="M12.0026 11.6654C11.5606 11.6654 11.1367 11.4898 10.8241 11.1772C10.5115 10.8646 10.3359 10.4407 10.3359 9.9987C10.3359 9.55667 10.5115 9.13275 10.8241 8.82019C11.1367 8.50763 11.5606 8.33203 12.0026 8.33203C12.4446 8.33203 12.8686 8.50763 13.1811 8.82019C13.4937 9.13275 13.6693 9.55667 13.6693 9.9987C13.6693 10.2176 13.6262 10.4343 13.5424 10.6365C13.4586 10.8387 13.3359 11.0224 13.1811 11.1772C13.0264 11.332 12.8426 11.4547 12.6404 11.5385C12.4382 11.6223 12.2215 11.6654 12.0026 11.6654ZM12.0026 5.33203C10.7649 5.33203 9.57794 5.8237 8.70277 6.69887C7.8276 7.57404 7.33594 8.76102 7.33594 9.9987C7.33594 13.4987 12.0026 18.6654 12.0026 18.6654C12.0026 18.6654 16.6693 13.4987 16.6693 9.9987C16.6693 8.76102 16.1776 7.57404 15.3024 6.69887C14.4273 5.8237 13.2403 5.33203 12.0026 5.33203Z" fill="white"/>
</svg>
