<svg width="180" height="180" viewBox="0 0 180 180" fill="none" xmlns="http://www.w3.org/2000/svg">
<g opacity="0.8">
<path d="M88.3689 79.201C90.8701 79.1915 93.4711 79.8181 95.4745 78.9934C97.4707 78.1716 98.9192 75.9424 100.514 74.2426C102.722 71.8898 105.043 69.5992 106.916 66.9943C107.855 65.6876 107.853 63.7266 108.376 62.0932C109.177 59.5879 108.651 56.5464 110.648 54.5906C112.183 53.0869 114.194 51.6059 116.218 51.177C118.957 50.5966 121.912 51.0327 124.914 51.3622C123.005 52.6014 121.173 53.9855 119.166 55.0346C117.512 55.8988 117.034 57.0931 117.397 58.7352C117.953 61.2476 119.697 62.9012 121.888 63.923C122.528 64.2217 123.74 63.574 124.568 63.1309C125.949 62.3912 127.207 61.4249 128.566 60.6403C129.135 60.3121 129.831 60.2048 130.815 59.8845C129.297 64.1034 128.236 68.0956 124.461 70.4797C122.705 71.5887 120.956 71.9932 118.739 71.8125C116.906 71.663 114.756 72.6348 113.111 73.6823C111.308 74.8303 109.927 76.6385 108.354 78.1509C107.946 78.5431 107.51 78.9054 106.809 79.5282C117.487 80.076 127.923 80.7382 138.244 82.4121C138.228 82.5926 138.212 82.7732 138.196 82.9538C106.346 82.9538 74.4961 82.9538 42.6463 82.9538C42.6311 82.7776 42.6159 82.6014 42.6008 82.4252C48.0232 81.7118 53.4292 80.8077 58.8727 80.3382C64.3687 79.8642 69.9019 79.8211 75.8081 79.5728C73.502 77.4021 71.557 75.3315 69.359 73.5779C67.5908 72.1672 65.4618 71.6783 63.0716 71.9392C60.6714 72.2012 58.4987 71.2574 56.7408 69.5218C54.1743 66.9878 53.1205 63.7127 51.9279 60.044C52.7398 60.1847 53.278 60.1441 53.6632 60.3674C55.5655 61.4703 57.4203 62.6546 59.3053 63.7878C61.1578 64.9016 62.0537 62.9114 63.2806 62.3221C64.1617 61.8988 64.6504 60.3898 65.0393 59.2698C65.7136 57.3274 65.1114 56.1281 63.3585 55.0715C61.6199 54.0235 59.9167 52.9149 58.2313 51.7833C58.0279 51.6467 58.032 51.2013 57.7921 50.4141C61.3691 50.7913 64.7517 50.7691 67.9177 51.5862C71.2325 52.4417 73.7122 55.9434 73.7863 59.7019C73.8647 63.6766 75.1489 67.1007 78.0045 69.9177C80.8224 72.6976 83.5848 75.5342 86.423 78.293C86.88 78.7372 87.6054 78.9053 88.3689 79.201ZM100.421 79.2033C101.454 79.2033 102.487 79.2033 103.685 79.2033C103.699 79.1836 103.856 78.8624 104.099 78.6332C105.703 77.1219 107.375 75.6793 108.917 74.1076C109.503 73.5093 110.413 72.7084 109.339 71.7351C108.404 70.8869 107.57 71.1416 106.738 71.9958C104.447 74.3487 102.116 76.6628 99.6404 79.1302C99.593 79.251 99.5455 79.3719 99.498 79.4927C99.701 79.4052 99.904 79.3176 100.421 79.2033ZM79.4367 75.5879C78.1876 74.3622 76.9186 73.156 75.6966 71.9038C74.9138 71.1017 74.1749 70.7584 73.2218 71.6573C72.1848 72.6353 72.9248 73.4226 73.548 74.0508C75.0186 75.5335 76.5865 76.9212 78.1424 78.3169C78.6584 78.7798 79.2153 79.4043 79.8285 79.5071C80.972 79.6986 82.1704 79.5621 83.346 79.5621C83.4719 79.3988 83.5978 79.2355 83.7238 79.0721C82.3884 77.9212 81.053 76.7702 79.4367 75.5879Z" fill="#0000FF" fill-opacity="0.75"/>
<path d="M52.1996 119.9C52.0758 116.181 55.603 112.197 59.6331 111.191C63.2048 110.299 66.2163 108.244 68.8151 105.634C69.659 104.787 70.4324 103.869 70.9818 103.265C62.4217 102.467 53.3629 101.622 44.3042 100.777C44.3214 100.511 44.3386 100.246 44.3559 99.9805C75.5781 99.9805 106.8 99.9805 138.023 99.9805C138.05 100.041 138.077 100.102 138.104 100.163C135.288 100.615 132.484 101.163 129.654 101.493C126.609 101.848 123.538 101.976 120.481 102.245C117.485 102.508 114.492 102.824 111.37 103.13C114.875 107.092 118.864 110.3 124.171 111.617C127.108 112.346 130.064 115.814 130.306 118.802C130.611 122.559 129.64 125.766 126.126 127.778C122.654 129.765 119.099 129.397 116.102 127.21C114.598 126.112 113.657 123.832 113.131 121.905C112.369 119.112 112.046 116.158 110.05 113.927C107.846 111.463 105.211 109.369 103.132 106.814C100.799 103.946 98.1008 102.896 94.4567 103.254C91.3088 103.563 88.1063 103.322 84.9279 103.316C83.841 103.314 82.9539 103.343 82.0401 104.345C78.8825 107.806 75.2979 110.898 72.3297 114.504C70.9587 116.17 70.1478 118.654 69.9438 120.847C69.5388 125.2 65.2252 128.926 61.5147 128.975C56.625 129.04 53.7003 126.264 52.2883 122.206C52.0635 121.56 52.2196 120.782 52.1996 119.9ZM126.36 123.432C126.827 122.715 127.293 121.998 127.759 121.281C127.652 121.285 127.546 121.289 127.439 121.293C127.439 120.374 127.439 119.455 127.439 118.55C126.849 117.725 126.181 116.793 125.404 115.708C124.761 115.38 123.81 114.895 122.893 114.427C120.882 114.484 118.851 114.861 117.487 115.958C116.835 117.111 116.333 117.998 115.921 118.729C115.921 119.796 115.921 120.844 115.921 121.802C116.434 122.744 116.968 123.724 117.36 124.445C118.265 125.019 119.064 125.552 119.892 126.038C120.15 126.189 120.494 126.311 120.778 126.277C121.617 126.179 122.446 125.995 123.211 125.858C124.112 125.43 125.053 125.023 125.945 124.53C126.165 124.408 126.226 124.002 126.36 123.432ZM64.4221 115.911C63.6412 115.435 62.9109 114.736 62.0653 114.543C61.2095 114.349 60.2089 114.539 59.329 114.775C58.5361 114.987 57.8207 115.489 57.2688 115.765C56.5692 116.693 55.9396 117.529 55.2001 118.51C55.2521 118.861 55.5173 119.516 55.3971 120.09C55.1799 121.127 54.5121 122.112 56.1084 122.711C56.3996 122.821 56.3694 123.786 56.4722 124.282C57.3994 124.857 58.4281 125.494 59.2322 125.993C60.3642 125.993 61.3991 125.993 62.6344 125.993C63.1986 125.612 64.0531 125.035 64.7452 124.567C65.4364 123.674 66.0732 122.85 66.8875 121.798C66.8875 121.088 66.8875 119.996 66.8875 118.552C66.7053 118.393 66.1894 117.942 65.671 117.489C66.036 116.578 66.2472 115.741 64.4221 115.911ZM78.3295 104.38C78.5875 104.092 78.8454 103.803 79.508 103.061C77.5246 103.344 75.9268 103.262 74.6328 103.849C73.5134 104.357 72.6351 105.548 71.8601 106.593C71.5236 107.046 71.7132 107.89 71.6639 108.557C72.3289 108.596 73.2257 108.931 73.6183 108.623C75.2081 107.376 76.6428 105.931 78.3295 104.38ZM107.844 107.654C108.099 107.906 108.316 108.3 108.618 108.383C109.387 108.593 110.195 108.663 110.987 108.789C110.846 107.885 110.998 106.762 110.512 106.117C108.873 103.937 106.773 102.541 103.61 103.576C105.008 104.925 106.33 106.201 107.844 107.654Z" fill="#0000FF" fill-opacity="0.75"/>
<path d="M86.5985 85.7855C87.0461 86.5385 87.2197 87.3458 87.7108 87.8332C88.6557 88.771 89.7803 89.5277 90.9377 90.4443C91.9263 88.6071 95.0323 88.6823 94.7024 85.7526C95.3894 85.7526 96.0252 85.7526 96.7154 85.7526C97.7649 89.4574 93.9684 89.5262 92.5549 91.5596C93.8037 93.3422 97.5146 93.4758 96.7711 97.0821C96.1945 97.0821 95.5688 97.0821 94.917 97.0821C94.6185 95.852 91.617 92.8285 90.7017 92.8924C89.8166 92.9542 86.8074 96.0688 86.6467 97.1392C86.1396 97.1392 85.6237 97.1392 85.1585 97.1392C84.5164 96.4499 85.1521 94.4074 86.1635 93.6781C87.1315 92.9801 88.0956 92.2769 89.093 91.5531C87.5532 89.5975 83.9158 89.4821 85.1871 85.6953C85.4734 85.6953 85.9707 85.6953 86.5985 85.7855Z" fill="#0000FF" fill-opacity="0.75"/>
<path d="M71.2798 95.0233C71.2798 95.788 71.2798 96.3803 71.2798 97.0998C70.7084 97.1451 70.2035 97.1852 69.5847 97.2342C69.5847 93.4181 69.5847 89.6701 69.5847 85.8008C73.2602 85.8008 76.9994 85.8008 80.8695 85.8008C80.8695 86.258 80.8695 86.7962 80.8695 87.4804C78.3034 87.4804 75.7409 87.5203 73.1805 87.4654C71.6618 87.4328 70.3644 87.4516 71.123 89.584C71.1792 89.7421 70.9912 89.9872 70.8621 90.3421C73.7979 90.3421 76.5863 90.3421 79.4665 90.3421C79.4665 91.0786 79.4665 91.7026 79.4665 92.4647C76.8219 92.4647 74.153 92.4647 71.2798 92.4647C71.2798 93.3459 71.2798 94.0984 71.2798 95.0233Z" fill="#0000FF" fill-opacity="0.75"/>
<path d="M104.882 97.0386C104.777 93.8116 104.777 90.7191 104.777 87.4874C103.164 87.4874 101.696 87.4874 100.157 87.4874C100.157 86.8443 100.157 86.3411 100.157 85.7578C103.929 85.7578 107.669 85.7578 111.504 85.7578C111.504 86.2816 111.504 86.785 111.504 87.4231C110.063 87.4231 108.593 87.4231 106.992 87.4231C106.992 90.6901 106.992 93.8295 106.992 97.1732C106.237 97.1732 105.611 97.1732 104.882 97.0386Z" fill="#0000FF" fill-opacity="0.75"/>
<path d="M82.0791 94.9987C82.079 91.8336 82.079 88.8434 82.079 85.8341C83.4475 85.3803 83.8587 86.0945 83.8679 87.1774C83.8956 90.4626 83.8779 93.7483 83.8779 97.1156C83.2651 97.1156 82.7617 97.1156 82.0791 97.1156C82.0791 96.4593 82.0791 95.8165 82.0791 94.9987Z" fill="#0000FF" fill-opacity="0.75"/>
<path d="M99.0008 92.885C99.0888 94.3845 99.1768 95.7133 99.2701 97.1215C98.7403 97.1215 98.2301 97.1215 97.639 97.1215C97.639 93.3663 97.639 89.6203 97.639 85.7773C98.1382 85.7773 98.6443 85.7773 99.3247 85.7773C99.2181 88.0607 99.1095 90.3875 99.0008 92.885Z" fill="#0000FF" fill-opacity="0.75"/>
<path d="M100.033 79.1677C99.904 79.3181 99.701 79.4057 99.498 79.4932C99.5455 79.3724 99.593 79.2515 99.7207 79.0617C99.8537 79.0301 99.9064 79.0675 100.033 79.1677Z" fill="#0000FF" fill-opacity="0.75"/>
</g>
</svg>
