<svg width="14" height="14" viewBox="0 0 14 14" fill="none" xmlns="http://www.w3.org/2000/svg">
<path d="M7.11951 12.6211C10.6195 12.6211 13.1195 11.4783 13.1195 8.93432C13.1195 6.16971 11.6195 4.32632 8.61951 2.94356L9.79951 1.54232C9.8596 1.45041 9.89224 1.34544 9.89408 1.23809C9.89592 1.13075 9.86691 1.02487 9.81 0.931248C9.75308 0.837623 9.6703 0.759596 9.57009 0.705113C9.46988 0.65063 9.35581 0.62164 9.23951 0.621094H4.99951C4.88345 0.622208 4.76976 0.651552 4.66992 0.706166C4.57007 0.760781 4.48758 0.838735 4.43079 0.932166C4.374 1.0256 4.3449 1.1312 4.34643 1.23833C4.34796 1.34545 4.38006 1.45031 4.43951 1.54232L5.61951 2.95279C2.61951 4.34479 1.11951 6.18817 1.11951 8.95279C1.11951 11.4783 3.61951 12.6211 7.11951 12.6211Z" stroke="black" stroke-linecap="round" stroke-linejoin="round"/>
<path d="M8.5025 6.44051C8.42834 6.24507 8.29009 6.07579 8.10694 5.95619C7.92379 5.83659 7.70484 5.77261 7.4805 5.77313H6.6425C6.40373 5.77269 6.17322 5.85382 5.99537 6.00088C5.81752 6.14794 5.7049 6.35054 5.6792 6.56967C5.6535 6.78879 5.71654 7.00895 5.85617 7.18774C5.9958 7.36653 6.20216 7.49131 6.4355 7.53805L7.7125 7.79651C7.97271 7.85008 8.20241 7.99029 8.35769 8.19033C8.51297 8.39037 8.58295 8.63622 8.55424 8.88088C8.52553 9.12555 8.40015 9.35186 8.20207 9.51658C8.00399 9.68129 7.7471 9.77285 7.4805 9.77375H6.7595C6.2875 9.77375 5.8865 9.49498 5.7375 9.10728M7.1195 5.77313V4.77344M7.1195 10.7734V9.77375" stroke="black" stroke-linecap="round" stroke-linejoin="round"/>
</svg>
