<svg width="47" height="42" viewBox="0 0 47 42" fill="none" xmlns="http://www.w3.org/2000/svg">
    <rect x="0.4" y="0.4" width="46.2" height="41.2" rx="7.6" fill="#F5F9FE"/>
    <rect x="0.4" y="0.4" width="46.2" height="41.2" rx="7.6" stroke="#DFE3E7" stroke-width="0.8"/>
    <path fill-rule="evenodd" clip-rule="evenodd" d="M19.3093 14.1914C19.8879 14.1914 20.357 14.6604 20.357 15.239V17.3343C20.357 17.9128 19.8879 18.3819 19.3093 18.3819C18.7308 18.3819 18.2617 17.9128 18.2617 17.3343V15.239C18.2617 14.6604 18.7308 14.1914 19.3093 14.1914Z" stroke="#151515" stroke-width="1.3" stroke-linecap="round" stroke-linejoin="round"/>
    <path d="M31.8793 16.2852H20.3555" stroke="#151515" stroke-width="1.3" stroke-linecap="round" stroke-linejoin="round"/>
    <path d="M18.26 16.2852H15.1172" stroke="#151515" stroke-width="1.3" stroke-linecap="round" stroke-linejoin="round"/>
    <path fill-rule="evenodd" clip-rule="evenodd" d="M19.3093 24.668C19.8879 24.668 20.357 25.137 20.357 25.7156V27.8108C20.357 28.3894 19.8879 28.8584 19.3093 28.8584C18.7308 28.8584 18.2617 28.3894 18.2617 27.8108V25.7156C18.2617 25.137 18.7308 24.668 19.3093 24.668Z" stroke="#151515" stroke-width="1.3" stroke-linecap="round" stroke-linejoin="round"/>
    <path d="M31.8793 26.7617H20.3555" stroke="#151515" stroke-width="1.3" stroke-linecap="round" stroke-linejoin="round"/>
    <path d="M18.26 26.7617H15.1172" stroke="#151515" stroke-width="1.3" stroke-linecap="round" stroke-linejoin="round"/>
    <path fill-rule="evenodd" clip-rule="evenodd" d="M27.6882 19.4297C28.2668 19.4297 28.7359 19.8987 28.7359 20.4773V22.5725C28.7359 23.1511 28.2668 23.6202 27.6882 23.6202C27.1097 23.6202 26.6406 23.1511 26.6406 22.5725V20.4773C26.6406 19.8987 27.1097 19.4297 27.6882 19.4297Z" stroke="#151515" stroke-width="1.3" stroke-linecap="round" stroke-linejoin="round"/>
    <path d="M26.641 21.5234H15.1172" stroke="#151515" stroke-width="1.3" stroke-linecap="round" stroke-linejoin="round"/>
    <path d="M31.8772 21.5234H28.7344" stroke="#151515" stroke-width="1.3" stroke-linecap="round" stroke-linejoin="round"/>
</svg>
