<svg width="27" height="27" viewBox="0 0 27 27" fill="none" xmlns="http://www.w3.org/2000/svg">
<path d="M19.8333 6.83333H22.5C23.9727 6.83333 25.1666 8.02724 25.1666 9.5V17.5C25.1666 18.9728 23.9727 20.1667 22.5 20.1667H19.8333V25.5L14.5 20.1667H9.16663C8.43025 20.1667 7.76358 19.8682 7.28101 19.3856M7.28101 19.3856L11.8333 14.8333H17.1666C18.6394 14.8333 19.8333 13.6394 19.8333 12.1667V4.16667C19.8333 2.69391 18.6394 1.5 17.1666 1.5H3.83329C2.36053 1.5 1.16663 2.69391 1.16663 4.16667V12.1667C1.16663 13.6394 2.36053 14.8333 3.83329 14.8333H6.49996V20.1667L7.28101 19.3856Z" stroke="white" stroke-width="2" stroke-linecap="round" stroke-linejoin="round"/>
</svg>
