<svg width="74" height="82" viewBox="0 0 74 82" fill="none" xmlns="http://www.w3.org/2000/svg">
<path d="M55.4149 68.1987C55.4154 67.7687 55.3168 67.3443 55.1267 66.9586C54.9366 66.5729 54.6601 66.2362 54.3187 65.9748C53.9773 65.7133 53.5802 65.5341 53.1583 65.4511C52.7363 65.368 52.3009 65.3834 51.8859 65.496C51.4709 65.6086 51.0875 65.8154 50.7654 66.1003C50.4433 66.3852 50.1912 66.7406 50.0288 67.1388C49.8664 67.5369 49.798 67.9672 49.8289 68.3961C49.8598 68.825 49.9892 69.241 50.207 69.6117V69.6222C50.3147 69.7958 50.4501 69.9329 50.5855 70.1221L52.2086 72.2729C52.2557 72.3355 52.3166 72.3862 52.3867 72.4212C52.4567 72.4561 52.5339 72.4743 52.6122 72.4743C52.6905 72.4743 52.7677 72.4561 52.8377 72.4212C52.9078 72.3862 52.9687 72.3355 53.0158 72.2729L54.6111 70.1586C54.7565 69.9869 54.8922 69.8073 55.0174 69.6204V69.6117C55.2747 69.1851 55.412 68.6969 55.4149 68.1987ZM52.6183 69.4138C52.3748 69.4138 52.1369 69.3417 51.9345 69.2064C51.7321 69.0712 51.5743 68.879 51.4812 68.6541C51.388 68.4292 51.3636 68.1817 51.4111 67.9429C51.4586 67.7042 51.5758 67.4849 51.748 67.3128C51.9201 67.1406 52.1394 67.0234 52.3782 66.9759C52.6169 66.9284 52.8644 66.9528 53.0893 67.046C53.3142 67.1391 53.5064 67.2969 53.6416 67.4993C53.7769 67.7017 53.8491 67.9396 53.8491 68.1831C53.8493 68.3449 53.8176 68.5052 53.7559 68.6548C53.6942 68.8045 53.6036 68.9405 53.4893 69.0551C53.375 69.1697 53.2393 69.2607 53.0898 69.3228C52.9404 69.385 52.7801 69.4171 52.6183 69.4173V69.4138Z" fill="#F5F5F5"/>
<path d="M23.694 72.6665L23.7461 72.6491L23.8971 72.6057L24.4769 72.4321L26.6486 71.8228L26.6278 71.8592C26.5167 71.486 26.3917 71.0694 26.2597 70.6215V70.6024L26.2771 70.5868C26.8786 70.0828 27.3904 69.4806 27.7908 68.8057C28.014 68.4254 28.1845 68.0166 28.2977 67.5905C28.4166 67.1376 28.4443 66.6655 28.3793 66.2018C28.2218 65.194 27.7171 64.2729 26.9524 63.5979C26.1257 62.8759 25.0937 62.4309 24.0013 62.3254C23.1812 62.2557 22.3581 62.4207 21.6282 62.8011C20.9248 63.1433 20.3171 63.6544 19.8593 64.2888C19.4376 64.8864 19.1758 65.582 19.0989 66.3094C19.0885 66.483 19.0625 66.6566 19.066 66.8302C19.0694 67.0038 19.0746 67.1774 19.0799 67.3371C19.1074 67.663 19.1655 67.9855 19.2534 68.3005C19.3397 68.5963 19.4561 68.8825 19.6006 69.1546C19.7422 69.408 19.9098 69.6459 20.1006 69.8646C20.4488 70.2549 20.8594 70.5846 21.3158 70.8402C21.9816 71.2179 22.7113 71.4697 23.4683 71.5832H23.4805V71.5936L23.6541 72.3818C23.6714 72.4686 23.6853 72.5363 23.694 72.5849C23.7027 72.6335 23.7079 72.6543 23.7079 72.656C23.6996 72.636 23.6938 72.615 23.6905 72.5935L23.6419 72.3956L23.4544 71.6006L23.4701 71.6145C22.7047 71.5107 21.9656 71.264 21.2915 70.8871C20.8288 70.6312 20.4122 70.2997 20.0589 69.9063C19.8607 69.685 19.6861 69.4435 19.5381 69.1859C19.3871 68.9099 19.2649 68.619 19.1736 68.3179C19.0865 67.998 19.0284 67.6709 19 67.3406L18.9844 66.8198C18.9844 66.6462 19.0069 66.4726 19.0174 66.299C19.0931 65.5568 19.3586 64.8466 19.7881 64.2367C20.2534 63.5889 20.8719 63.0665 21.5883 62.716C22.3357 62.3263 23.1789 62.1582 24.0186 62.2317C25.1327 62.3372 26.1853 62.7909 27.027 63.5284C27.4238 63.8774 27.7537 64.2956 28.0009 64.7627C28.0668 64.8742 28.1248 64.9902 28.1745 65.1099C28.2282 65.2221 28.2734 65.3381 28.3099 65.4571C28.3464 65.5786 28.3863 65.6966 28.4193 65.8164C28.4522 65.9362 28.4627 66.0612 28.4852 66.1827C28.5498 66.6578 28.5197 67.141 28.3967 67.6044C28.28 68.0371 28.1048 68.4517 27.8759 68.8369C27.4676 69.5173 26.947 70.1237 26.3361 70.6302L26.3483 70.5955L26.7076 71.8332L26.7163 71.861L26.6885 71.8697L24.4925 72.4529L23.9145 72.604L23.7687 72.6404L23.694 72.6665Z" fill="#E0E0E0"/>
<path d="M26.9315 72.668C26.4386 72.8529 25.9348 73.0077 25.423 73.1315C24.9194 73.2856 24.407 73.4091 23.8884 73.5012C24.382 73.3183 24.8856 73.1642 25.397 73.0395C25.9007 72.8853 26.4131 72.7612 26.9315 72.668Z" fill="#E0E0E0"/>
<path d="M26.2529 74.0898C26.0978 74.1995 25.9196 74.2719 25.7321 74.3016C25.5513 74.36 25.3596 74.3766 25.1714 74.3502C25.3454 74.2843 25.5257 74.2366 25.7095 74.2079C25.8863 74.1507 26.0683 74.1111 26.2529 74.0898Z" fill="#E0E0E0"/>
<path d="M24.3137 72.5075C24.3057 72.4922 24.2999 72.4758 24.2963 72.4589C24.2859 72.4207 24.2738 72.3721 24.2564 72.3114C24.2217 72.1736 24.1731 71.9844 24.1106 71.7437C23.9856 71.242 23.8085 70.5285 23.5898 69.6484C23.4804 69.2057 23.3624 68.7214 23.2426 68.2024C23.2171 68.0742 23.1657 67.9525 23.0916 67.8448C23.0603 67.7918 23.0109 67.7519 22.9525 67.7324C22.8942 67.713 22.8307 67.7153 22.7739 67.7389C22.72 67.775 22.6766 67.8246 22.6479 67.8828C22.6193 67.941 22.6065 68.0057 22.6107 68.0704C22.6149 68.2095 22.6698 68.3423 22.7652 68.4437C22.8678 68.5495 22.9945 68.629 23.1345 68.6752C23.2744 68.7215 23.4235 68.7332 23.569 68.7093C23.7215 68.6861 23.8659 68.6252 23.989 68.5322C24.112 68.4391 24.2099 68.3168 24.2738 68.1763C24.4156 67.8839 24.4512 67.5512 24.3745 67.2354C24.3449 67.0756 24.2695 66.9279 24.1575 66.8101C24.104 66.7567 24.0345 66.7222 23.9596 66.7119C23.8847 66.7016 23.8085 66.7159 23.7426 66.7529C23.6858 66.8038 23.6473 66.8721 23.6332 66.9471C23.6191 67.0221 23.6301 67.0996 23.6645 67.1677C23.7406 67.3092 23.8518 67.4287 23.9873 67.5149C24.2432 67.7183 24.5513 67.8452 24.8761 67.8812C25.031 67.8951 25.1869 67.8719 25.331 67.8135C25.467 67.7504 25.586 67.6558 25.6782 67.5375C25.7711 67.4226 25.8268 67.2821 25.8379 67.1348C25.8436 67.0641 25.8349 66.993 25.8122 66.9259C25.7895 66.8587 25.7533 66.7969 25.7059 66.7442C25.6652 66.6934 25.6111 66.6551 25.5497 66.6337C25.4884 66.6122 25.4222 66.6084 25.3587 66.6227C25.2967 66.6452 25.2407 66.6817 25.195 66.7292C25.1493 66.7767 25.115 66.8341 25.0949 66.8969C25.0098 67.1521 25.0845 67.4368 25.1157 67.6989C25.199 68.2197 25.2893 68.7162 25.3813 69.1624C25.5549 70.0512 25.7059 70.7716 25.8084 71.2767C25.857 71.5215 25.8969 71.7142 25.9247 71.8513C25.9351 71.9138 25.9455 71.9624 25.9524 72.0024C25.9541 72.0197 25.9541 72.0371 25.9524 72.0544C25.9453 72.0383 25.9401 72.0214 25.9368 72.0041C25.9264 71.9659 25.9142 71.9173 25.8986 71.8565C25.8656 71.7194 25.8222 71.5284 25.765 71.2854C25.6521 70.7889 25.4907 70.0703 25.3084 69.1762C25.2181 68.7301 25.1192 68.2406 25.0306 67.7111C25.0116 67.5774 24.989 67.4438 24.9751 67.3031C24.9548 67.1577 24.9667 67.0095 25.0098 66.8692C25.0344 66.7939 25.0757 66.7253 25.1308 66.6684C25.1858 66.6116 25.2531 66.568 25.3275 66.5411C25.4079 66.5205 25.4924 66.5231 25.5714 66.5486C25.6504 66.5741 25.7205 66.6214 25.7736 66.6851C25.8283 66.7465 25.8701 66.8183 25.8967 66.8961C25.9232 66.9739 25.9339 67.0562 25.9281 67.1382C25.9183 67.3041 25.8577 67.4629 25.7545 67.5931C25.6512 67.7252 25.5171 67.8301 25.3639 67.8986C25.2062 67.9627 25.0355 67.9889 24.8657 67.975C24.5236 67.937 24.1989 67.8041 23.9283 67.5913C23.7795 67.4932 23.6597 67.3572 23.5811 67.1973C23.5312 67.1114 23.515 67.0101 23.5358 66.913C23.5566 66.8159 23.6128 66.73 23.6934 66.6721C23.7741 66.6142 23.8734 66.5884 23.9721 66.5998C24.0707 66.6112 24.1616 66.659 24.2269 66.7338C24.3514 66.8647 24.4358 67.0285 24.4699 67.2059C24.5515 67.5435 24.5128 67.8989 24.3606 68.211C24.2892 68.3641 24.1813 68.4973 24.0462 68.5987C23.9112 68.7002 23.7532 68.7667 23.5863 68.7926C23.4261 68.8184 23.2621 68.8047 23.1084 68.7526C22.9547 68.7006 22.816 68.6118 22.7045 68.494C22.595 68.3764 22.5331 68.2224 22.5309 68.0618C22.5263 67.9815 22.5436 67.9015 22.5809 67.8302C22.6182 67.759 22.6741 67.6992 22.7427 67.6573C22.7798 67.6395 22.8201 67.6292 22.8612 67.6272C22.9024 67.6251 22.9435 67.6312 22.9822 67.6451C23.0526 67.6748 23.1129 67.7243 23.1558 67.7875C23.235 67.9055 23.2909 68.0374 23.3207 68.1763C23.444 68.6971 23.5586 69.1832 23.6679 69.6276L24.154 71.7263C24.2078 71.9694 24.2512 72.1603 24.2825 72.2992C24.2946 72.36 24.305 72.4086 24.3137 72.4485C24.3174 72.468 24.3174 72.488 24.3137 72.5075Z" fill="#E0E0E0"/>
<path d="M26.8118 73.3164C26.417 73.4748 26.0108 73.6031 25.5966 73.7001C25.1887 73.8271 24.7722 73.9246 24.3502 73.9917C24.745 73.8333 25.1512 73.705 25.5654 73.608C25.9734 73.4812 26.3899 73.3837 26.8118 73.3164Z" fill="#E0E0E0"/>
<path d="M74.0001 81.3342C74.0001 81.3585 57.4339 81.3793 37.0018 81.3793C16.5696 81.3793 0 81.3585 0 81.3342C0 81.3099 16.5627 81.2891 37.0018 81.2891C57.4409 81.2891 74.0001 81.3082 74.0001 81.3342Z" fill="#263238"/>
<path d="M70.364 54.0273C68.9545 54.7564 67.8747 56.0133 67.0987 57.3968C66.3228 58.7804 65.8211 60.2959 65.3263 61.8113L64.8923 69.5832C66.5311 66.7953 67.8434 63.5178 68.2011 60.3028L67.1109 60.2056C67.8417 60.0945 68.4562 59.565 68.8468 58.9366C69.2374 58.3082 69.4371 57.5843 69.6332 56.8708L68.3035 57.0687C69.3559 56.3576 70.0938 55.2684 70.364 54.0273Z" fill="#455A64"/>
<g opacity="0.3">
<path d="M70.364 54.0273C68.9545 54.7564 67.8747 56.0133 67.0987 57.3968C66.3228 58.7804 65.8211 60.2959 65.3263 61.8113L64.8923 69.5832C66.5311 66.7953 67.8434 63.5178 68.2011 60.3028L67.1109 60.2056C67.8417 60.0945 68.4562 59.565 68.8468 58.9366C69.2374 58.3082 69.4371 57.5843 69.6332 56.8708L68.3035 57.0687C69.3559 56.3576 70.0938 55.2684 70.364 54.0273Z" fill="black"/>
</g>
<path d="M64.6493 71.3933C64.6493 71.3933 61.0923 67.1367 61.134 63.0729H62.5696C62.5696 63.0729 61.0073 62.0452 61.1322 61.4706C61.2572 60.896 61.3058 58.7209 61.3058 58.7209L62.6199 59.049C62.6199 59.049 61.6339 58.5559 61.5107 57.7765C61.3874 56.9971 61.7988 53.3828 61.7988 53.3828C61.7988 53.3828 63.3994 55.0667 63.8924 56.7905C64.3854 58.5143 65.67 60.5262 65.2916 65.781C64.9131 71.0357 64.6493 71.3933 64.6493 71.3933Z" fill="#455A64"/>
<path d="M66.4531 71.7952C66.4531 71.7952 70.3069 69.2277 71.1627 65.952L70.0065 65.6291C70.0065 65.6291 71.4873 65.1465 71.5133 64.6569C71.5394 64.1674 71.9821 62.4089 71.9821 62.4089L70.8537 62.3863C70.8537 62.3863 71.7546 62.2127 72.0237 61.6051C72.2928 60.9976 72.7546 58.0117 72.7546 58.0117C72.7546 58.0117 71.0985 59.0134 70.3242 60.2928C69.55 61.5722 68.0675 62.9054 67.2255 67.214C66.3836 71.5226 66.4531 71.7952 66.4531 71.7952Z" fill="#455A64"/>
<path d="M62.7623 57.0977C62.7685 57.1116 62.7731 57.1261 62.7762 57.1411L62.8075 57.2713C62.8352 57.3945 62.8734 57.5629 62.9238 57.7764C63.0227 58.2156 63.1547 58.8527 63.3039 59.6426C63.6077 61.2205 63.9671 63.4148 64.25 65.8521C64.533 68.2893 64.6823 70.5079 64.7465 72.1154C64.7795 72.9191 64.7969 73.5684 64.8003 74.0249C64.8003 74.2454 64.8003 74.4172 64.8003 74.5457C64.8003 74.6012 64.8003 74.6446 64.8003 74.6811C64.8029 74.696 64.8029 74.7113 64.8003 74.7262C64.7979 74.7113 64.7979 74.696 64.8003 74.6811C64.8003 74.6464 64.8003 74.6012 64.8003 74.5474C64.8003 74.4207 64.7899 74.2488 64.7812 74.0266C64.7674 73.577 64.7396 72.9278 64.6979 72.1258C64.6181 70.52 64.4566 68.3067 64.1771 65.8764C63.8976 63.446 63.547 61.2483 63.2588 59.6669C63.1165 58.877 62.9949 58.2382 62.9116 57.7972C62.87 57.582 62.837 57.4119 62.8127 57.2903C62.804 57.2348 62.7953 57.1914 62.7901 57.1567C62.7766 57.1393 62.7671 57.1191 62.7623 57.0977Z" fill="#263238"/>
<path d="M64.1563 73.9995C64.1563 73.9995 60.9014 70.3158 59.8893 68.073L60.6532 67.7484C60.0994 67.8386 59.5335 67.6008 59.1047 67.2397C58.6928 66.8584 58.3384 66.4192 58.0527 65.936L59.0578 65.7624C58.1348 65.4999 57.348 64.8927 56.8601 64.0664C58.0475 64.2608 59.1168 64.9118 60.0039 65.726C60.7079 66.4009 61.3472 67.1401 61.9135 67.9341C62.1967 68.3156 62.4442 68.7224 62.653 69.1493C63.1963 70.2811 64.158 72.6437 64.1563 73.9995Z" fill="#455A64"/>
<path d="M71.2129 60.168C71.2103 60.1813 71.2056 60.1942 71.199 60.2062L71.1504 60.3138L70.9543 60.7252C70.7807 61.0724 70.5359 61.5932 70.2373 62.2372C69.6402 63.5166 68.8486 65.3046 68.0743 67.3149C67.3001 69.3251 66.6856 71.1774 66.2585 72.5227C66.0485 73.198 65.8836 73.7379 65.7725 74.125L65.6388 74.5642L65.6023 74.677C65.6023 74.7013 65.5884 74.7152 65.5867 74.7135C65.585 74.7118 65.5867 74.6996 65.5867 74.6736L65.6145 74.559L65.7291 74.1181C65.8297 73.7362 65.986 73.1859 66.1891 72.5088C66.5936 71.1531 67.2029 69.2956 67.9806 67.2819C68.7583 65.2682 69.5586 63.4836 70.1714 62.2094C70.4769 61.5723 70.7321 61.0602 70.9143 60.7096L71.1261 60.3051L71.1834 60.2027C71.1919 60.19 71.2018 60.1784 71.2129 60.168Z" fill="#263238"/>
<path d="M64.4323 75.5832C64.407 75.497 64.3896 75.4087 64.3802 75.3193C64.3542 75.1457 64.3108 74.9044 64.25 74.6024C64.0904 73.8172 63.8692 73.0458 63.5886 72.2953C63.3036 71.5458 62.9593 70.8202 62.5592 70.1254C62.4047 69.8598 62.2762 69.6462 62.1825 69.5021C62.1314 69.4286 62.0866 69.3508 62.0488 69.2695C62.1095 69.3351 62.1641 69.406 62.212 69.4813C62.3144 69.6219 62.4533 69.8285 62.6147 70.0941C63.0333 70.7829 63.3877 71.5087 63.6737 72.2623C63.9574 73.0171 64.1713 73.7963 64.3125 74.5902C64.3646 74.8957 64.3993 75.1422 64.4149 75.3158C64.4282 75.4043 64.434 75.4937 64.4323 75.5832Z" fill="#263238"/>
<path d="M68.727 74.7148H61.6027V76.1678H68.727V74.7148Z" fill="#FF725E"/>
<path d="M62.2815 76.1719L63.0523 81.0586H67.3574L68.0761 76.1719H62.2815Z" fill="#FF725E"/>
<path d="M68.2897 76.1701C68.2897 76.1944 66.9426 76.2153 65.2795 76.2153C63.6165 76.2153 62.2711 76.1944 62.2711 76.1701C62.2711 76.1458 63.6182 76.125 65.2795 76.125C66.9408 76.125 68.2897 76.1441 68.2897 76.1701Z" fill="#263238"/>
<path d="M40.4719 77.9071V81.5109L47.7421 81.4762C47.69 80.7454 43.6991 79.2872 43.6991 79.2872L43.7789 77.8984L40.4719 77.9071Z" fill="#455A64"/>
<g opacity="0.6">
<path d="M41.6506 78.9593C41.5798 78.9853 41.5208 79.0359 41.4844 79.102C41.4481 79.168 41.4368 79.245 41.4527 79.3187C41.4693 79.3911 41.5138 79.4542 41.5765 79.4941C41.6392 79.5341 41.7151 79.5477 41.7878 79.5322C41.8628 79.504 41.9252 79.4497 41.9635 79.3792C42.0017 79.3087 42.0133 79.2269 41.9961 79.1485C41.9833 79.1126 41.9635 79.0796 41.9378 79.0513C41.9122 79.0231 41.8811 79.0003 41.8466 78.9841C41.812 78.968 41.7746 78.9589 41.7365 78.9573C41.6984 78.9557 41.6604 78.9617 41.6246 78.9749" fill="white"/>
</g>
<path d="M40.4719 81.5082V80.9336L47.4157 81.0152C47.4157 81.0152 47.7768 81.2322 47.7438 81.4735L40.4719 81.5082Z" fill="#263238"/>
<path d="M43.7026 79.3554C43.7026 79.3936 43.529 79.4127 43.3554 79.529C43.1818 79.6453 43.0933 79.8103 43.0603 79.7964C43.0273 79.7825 43.0777 79.5638 43.2877 79.4197C43.4978 79.2756 43.7095 79.3207 43.7026 79.3554Z" fill="#263238"/>
<path d="M44.6557 79.6898C44.6557 79.7263 44.5116 79.7922 44.3936 79.9519C44.2755 80.1116 44.2443 80.28 44.2096 80.2783C44.1749 80.2766 44.1488 80.0665 44.2981 79.8703C44.4474 79.6742 44.654 79.6551 44.6557 79.6898Z" fill="#263238"/>
<path d="M45.0845 80.6059C45.0515 80.6145 44.9994 80.4323 45.0845 80.2222C45.1695 80.0122 45.3362 79.9323 45.3518 79.9636C45.3674 79.9948 45.2667 80.1059 45.1973 80.276C45.1279 80.4462 45.1192 80.6024 45.0845 80.6059Z" fill="#263238"/>
<path d="M43.6315 78.3301C43.6176 78.3648 43.4579 78.3162 43.2548 78.3301C43.0517 78.344 42.9076 78.4169 42.8833 78.3839C42.859 78.3509 43.0117 78.2103 43.2461 78.1999C43.4804 78.1895 43.6488 78.3006 43.6315 78.3301Z" fill="#263238"/>
<path d="M43.673 79.5184C43.6926 79.4466 43.698 79.3717 43.6886 79.2979C43.6728 79.0956 43.6066 78.9004 43.4959 78.7303C43.4203 78.6135 43.3238 78.5117 43.2112 78.4299C43.178 78.4015 43.1378 78.3825 43.0948 78.3749C43.0517 78.3672 43.0074 78.3713 42.9665 78.3865C42.9239 78.4103 42.8882 78.4447 42.863 78.4864C42.8377 78.5281 42.8237 78.5756 42.8224 78.6244C42.8336 78.8124 42.9002 78.9929 43.0139 79.143C43.1276 79.2932 43.2833 79.4063 43.4612 79.468C43.6354 79.5233 43.8221 79.5251 43.9973 79.4731C44.1724 79.4211 44.328 79.3177 44.4438 79.1764C44.5006 79.1111 44.5448 79.0357 44.574 78.9542C44.5887 78.9073 44.5887 78.857 44.574 78.8101C44.5659 78.7867 44.5528 78.7653 44.5358 78.7473C44.5187 78.7293 44.498 78.7152 44.475 78.706C44.3997 78.6837 44.3187 78.6918 44.2493 78.7285C44.1892 78.7559 44.1311 78.7879 44.0757 78.824C43.9125 78.9334 43.7716 79.0731 43.6608 79.2354C43.6156 79.2928 43.5814 79.3582 43.5602 79.4281C43.7107 79.2167 43.8983 79.0344 44.1139 78.89C44.2111 78.8344 44.3396 78.7546 44.442 78.791C44.4872 78.8084 44.5045 78.8622 44.4837 78.9247C44.4573 78.9926 44.4184 79.055 44.3691 79.1087C44.2641 79.2335 44.1244 79.3244 43.9678 79.3698C43.8111 79.4152 43.6445 79.4132 43.489 79.3639C43.3335 79.309 43.1969 79.2109 43.0952 79.0812C42.9934 78.9514 42.9307 78.7954 42.9144 78.6313C42.9132 78.6 42.9204 78.569 42.9354 78.5415C42.9504 78.514 42.9725 78.491 42.9995 78.4751C43.0271 78.4662 43.0565 78.4644 43.085 78.4699C43.1135 78.4754 43.1402 78.4879 43.1626 78.5063C43.2677 78.5792 43.3588 78.6703 43.4317 78.7754C43.5411 78.9308 43.614 79.1088 43.6452 79.2962C43.6678 79.4403 43.6643 79.5184 43.673 79.5184Z" fill="#263238"/>
<path d="M37.8176 78.4284L37.9409 79.3571L37.8593 81.4489L35.1338 81.5149L35.0366 79.3571L35.3456 78.0742L37.8176 78.4284Z" fill="#455A64"/>
<path d="M36.5122 81.2923C36.4949 81.2923 36.5348 80.6534 36.599 79.8636C36.6633 79.0737 36.731 78.4314 36.7466 78.4297C36.7622 78.428 36.724 79.0703 36.6598 79.8601C36.5956 80.65 36.5279 81.2923 36.5122 81.2923Z" fill="#263238"/>
<path d="M37.8698 81.1016L35.1166 81.1345V81.5165L37.8715 81.5147L37.8698 81.1016Z" fill="#263238"/>
<path d="M35.1235 79.8946C35.1235 79.8946 35.1426 79.8512 35.193 79.7852C35.2651 79.6905 35.3466 79.6033 35.436 79.5248C35.5674 79.4058 35.7154 79.3064 35.8752 79.2297C36.1547 79.0929 36.4708 79.0496 36.7768 79.1062C37.0828 79.1628 37.3625 79.3162 37.5747 79.5439C37.6549 79.633 37.7221 79.7329 37.7743 79.8407C37.7965 79.8787 37.8112 79.9205 37.8177 79.964C37.733 79.8299 37.6378 79.7028 37.533 79.5838C37.2604 79.3152 36.8933 79.1643 36.5106 79.1637C36.127 79.1752 35.759 79.3186 35.469 79.5699C35.245 79.7557 35.134 79.905 35.1235 79.8946Z" fill="#263238"/>
<path d="M36.5002 20.0368L36.4794 29.456L40.5224 29.6487L40.6404 27.3573C40.6404 27.3573 42.0761 27.642 42.4458 26.3157C42.6837 25.4634 42.6194 18.8789 42.6194 18.8789L36.5002 20.0368Z" fill="#B78876"/>
<path d="M43.147 19.5409C42.5099 19.7232 42.3711 20.7561 42.3711 20.7561L41.3729 22.9625C40.8643 22.5649 40.1803 22.5875 40.0518 23.4832C39.9581 24.129 40.7618 24.2592 40.7618 24.2592C40.2931 25.056 39.9772 25.7 39.295 26.4569C38.5624 27.2815 38.1458 27.3631 37.3472 27.3735H36.4654C36.4654 27.3735 36.0331 25.9726 35.2346 22.4712C34.3492 18.5861 38.9426 19.0861 39.7949 18.0949C41.1819 16.4822 45.159 18.9663 43.147 19.5409Z" fill="#263238"/>
<path d="M44.2685 18.6948C44.2333 18.4876 44.1253 18.2998 43.964 18.1652C43.8026 18.0306 43.5985 17.958 43.3883 17.9605C43.454 17.8498 43.4786 17.7195 43.4576 17.5925C43.4367 17.4654 43.3716 17.3499 43.2738 17.2661C43.1723 17.1864 43.0547 17.1296 42.9291 17.0996C42.8036 17.0697 42.673 17.0673 42.5464 17.0925C42.2932 17.1438 42.0488 17.2315 41.8208 17.3529C41.7356 17.1012 41.5711 16.8838 41.3521 16.7332C41.1163 16.5951 40.8456 16.5281 40.5726 16.5405C39.3314 16.5405 38.6787 17.3894 38.0121 18.2556C37.9149 18.417 37.7757 18.549 37.6094 18.6375C37.4883 18.6731 37.362 18.6872 37.2361 18.6792C36.7619 18.6942 36.3 18.8341 35.8971 19.0846C35.4942 19.3351 35.1645 19.6875 34.9412 20.1062C34.5072 20.9446 34.1826 22.8837 35.3075 24.0988L35.9845 25.6109L42.4648 20.4759C42.5117 20.5002 42.9179 20.6981 43.2304 20.5349C44.0064 20.1253 43.68 19.4448 43.68 19.4448C43.7425 19.4014 44.3344 19.1115 44.2685 18.6948Z" fill="#263238"/>
<path d="M38.2708 23.75C38.3249 23.9864 38.3172 24.2327 38.2483 24.4652C38.2118 24.7052 38.113 24.9315 37.9618 25.1214C37.934 25.1075 38.0642 24.8193 38.1476 24.4426C38.2309 24.0659 38.2413 23.75 38.2708 23.75Z" fill="#455A64"/>
<path d="M38.7604 23.2852C38.7943 23.5168 38.7813 23.753 38.7222 23.9795C38.6964 24.2105 38.6237 24.4338 38.5087 24.6357C38.5257 24.4077 38.5635 24.1816 38.6215 23.9604C38.6464 23.7315 38.6929 23.5054 38.7604 23.2852Z" fill="#455A64"/>
<path d="M40.1595 21.7266C40.17 21.7405 40.0554 21.8238 39.9096 21.9939C39.7237 22.2192 39.5765 22.4738 39.4738 22.7473C39.3742 23.0239 39.2936 23.3069 39.2325 23.5944C39.2154 23.7143 39.1815 23.8312 39.1319 23.9416C39.1245 23.8176 39.1345 23.6932 39.1614 23.5719C39.2025 23.2756 39.2752 22.9846 39.3784 22.7039C39.484 22.4191 39.6471 22.1591 39.8575 21.9401C39.9398 21.846 40.0433 21.7728 40.1595 21.7266Z" fill="#455A64"/>
<path d="M40.7254 20.6758C40.7376 20.6758 40.7792 20.7661 40.8053 20.9292C40.8346 21.1443 40.8222 21.3629 40.7688 21.5733C40.718 21.784 40.6253 21.9824 40.4963 22.1565C40.3973 22.2902 40.3227 22.3544 40.3071 22.3458C40.2914 22.3371 40.5553 22.0211 40.6699 21.549C40.7845 21.0768 40.6942 20.6793 40.7254 20.6758Z" fill="#455A64"/>
<path d="M35.9012 23.0269C35.8873 23.0529 35.764 23.0095 35.6252 22.9314C35.4863 22.8533 35.3839 22.7717 35.3977 22.7457C35.4116 22.7196 35.5349 22.7648 35.6738 22.8429C35.8126 22.921 35.9151 23.0026 35.9012 23.0269Z" fill="#455A64"/>
<path d="M37.8542 22.0158C37.87 22.162 37.8289 22.3087 37.7396 22.4255C37.6146 22.6321 37.4462 22.7397 37.4289 22.7189C37.4115 22.6981 37.5382 22.5627 37.6511 22.3717C37.7639 22.1807 37.8246 22.0089 37.8542 22.0158Z" fill="#455A64"/>
<path d="M38.4547 21.6992C38.4526 21.8771 38.3916 22.0493 38.2811 22.1888C38.1197 22.4353 37.9166 22.5672 37.901 22.5359C37.8853 22.5047 38.045 22.3624 38.1961 22.1245C38.274 21.9779 38.3603 21.8359 38.4547 21.6992Z" fill="#455A64"/>
<path d="M41.4406 17.7528C41.4406 17.7528 41.3642 17.6955 41.2184 17.6121C41.0097 17.5015 40.7776 17.442 40.5414 17.4386C40.1911 17.4293 39.8457 17.5215 39.5467 17.7042C39.1875 17.9401 38.8961 18.2656 38.7013 18.6485C38.5521 18.9288 38.4356 19.2252 38.3541 19.5321L38.3367 19.5911L38.2829 19.5616C38.0045 19.4159 37.6961 19.3369 37.3819 19.3307C37.1326 19.3251 36.8841 19.3626 36.6476 19.4418C36.4371 19.5199 36.2358 19.6206 36.047 19.7422C36.0859 19.6957 36.1316 19.6554 36.1824 19.6224C36.3189 19.523 36.4684 19.4429 36.6268 19.3846C36.8679 19.2927 37.1239 19.2462 37.3819 19.2474C37.7115 19.2466 38.0365 19.3246 38.3298 19.4748L38.2586 19.5061C38.3388 19.1916 38.4553 18.8875 38.6058 18.5999C38.809 18.2013 39.1153 17.8644 39.4929 17.6243C39.8069 17.4372 40.1693 17.3472 40.5344 17.3656C40.7804 17.3762 41.0194 17.4497 41.2288 17.5792C41.2846 17.6145 41.3364 17.6558 41.3833 17.7024C41.4267 17.7337 41.4423 17.751 41.4406 17.7528Z" fill="#455A64"/>
<path d="M43.5672 18.2624C43.5585 18.2624 43.6783 18.2312 43.7981 18.3666C43.8327 18.407 43.8588 18.4539 43.8749 18.5046C43.891 18.5553 43.8968 18.6087 43.8918 18.6617C43.8813 18.7323 43.8545 18.7995 43.8135 18.8579C43.7726 18.9164 43.7185 18.9645 43.6558 18.9985C43.5067 19.083 43.3309 19.1073 43.1645 19.0662C42.9815 19.018 42.8099 18.9342 42.6593 18.8197C42.5013 18.6936 42.3355 18.5776 42.1628 18.4725C41.9761 18.3715 41.7745 18.3006 41.5657 18.2624C41.16 18.1894 40.7425 18.218 40.3505 18.3457C40.0286 18.4518 39.7248 18.6064 39.4495 18.804C38.9774 19.1425 38.7447 19.4272 38.7291 19.4116C38.7758 19.3396 38.8299 19.2727 38.8906 19.212C39.0495 19.0407 39.2238 18.8844 39.4114 18.745C39.6881 18.5339 39.997 18.3686 40.3262 18.2555C40.7338 18.1173 41.1699 18.085 41.5934 18.1617C41.8128 18.2021 42.0243 18.2771 42.2201 18.3839C42.3947 18.4887 42.5623 18.6046 42.7218 18.7311C42.8615 18.841 43.0213 18.9223 43.1923 18.9707C43.3388 19.011 43.4951 18.9942 43.6297 18.9238C43.6842 18.896 43.7317 18.8563 43.7686 18.8076C43.8056 18.7589 43.8311 18.7025 43.8432 18.6426C43.8557 18.5497 43.8314 18.4557 43.7755 18.3805C43.7223 18.3177 43.6485 18.2758 43.5672 18.2624Z" fill="#455A64"/>
<path d="M62.4022 25.4949C62.2494 25.3595 60.1906 26.2223 60.1906 26.2223C60.1906 26.2223 58.6543 27.4374 58.0224 28.1405L57.6318 28.4651L51.7886 33.0081L44.6018 30.0188L43.0394 34.0271C43.0394 34.0271 51.1081 37.2403 52.3372 36.69C53.6721 36.0929 58.6456 30.8867 58.6578 30.8694L59.3765 30.175C59.3765 30.175 59.7566 30.175 60.0448 30.1507C60.333 30.1264 61.1766 29.5726 61.1766 29.5726C61.2567 29.4186 61.3118 29.2527 61.3398 29.0814C61.3575 29.0131 61.3517 28.9409 61.3233 28.8764C61.295 28.8118 61.2458 28.7587 61.1836 28.7255C61.2129 28.5921 61.2176 28.4544 61.1975 28.3193C61.1645 28.0901 60.8503 27.8245 60.8503 27.8245C60.9482 27.7247 61.0151 27.5987 61.043 27.4617C61.1124 27.1961 60.7704 26.9409 60.7704 26.9409C60.7704 26.9409 61.9665 26.1285 62.2564 25.9844C62.5463 25.8403 62.555 25.6303 62.4022 25.4949Z" fill="#B78876"/>
<path d="M45.659 66.5498C45.6833 66.286 45.6954 66.0829 45.6954 65.9561L46.5078 53.0008C46.5078 53.0008 45.8256 49.2164 45.5027 48.213L42.6019 47.0898L38.736 48.5949C38.7117 48.2842 38.6961 48.0915 38.6961 48.0915L33.0074 50.0601C33.0074 50.0601 32.8598 53.9434 33.0074 55.1256C33.056 55.5057 33.2035 56.4865 33.3841 57.6427C33.3841 57.6427 33.5681 60.1546 33.6063 60.2952C33.7434 60.8073 33.7799 62.0624 33.7799 63.3192C33.7799 64.9163 33.8666 66.8172 33.9673 67.7199C34.068 68.6226 34.1149 78.5591 34.1149 78.5591H38.3159L38.8558 62.7342C38.946 61.0382 39.0814 58.4447 39.1682 56.5681L40.1543 62.4113C40.1543 62.6249 40.7549 65.9666 40.7549 65.9666C40.6162 67.0182 40.5305 68.0762 40.498 69.1364C40.4285 72.0875 40.0831 78.5591 40.0831 78.5591H44.1938C44.1938 78.5591 45.4298 69.2058 45.6694 66.5498H45.659Z" fill="#263238"/>
<path d="M46.3742 52.229C46.2392 52.178 46.1114 52.1097 45.994 52.0259C45.7024 51.8388 45.4302 51.6231 45.1816 51.3818C44.9329 51.1411 44.7085 50.8765 44.5115 50.592C44.4227 50.4785 44.3508 50.3528 44.298 50.2188C44.3932 50.3245 44.4813 50.4364 44.5618 50.5538C44.7711 50.8245 44.9991 51.0803 45.2441 51.3193C45.4891 51.5558 45.7508 51.7746 46.027 51.9738C46.1487 52.0505 46.2647 52.1357 46.3742 52.229Z" fill="#455A64"/>
<path d="M39.0346 54.5852C39.0017 54.5466 38.9747 54.5033 38.9548 54.4567C38.8902 54.3349 38.8323 54.2097 38.7812 54.0817C38.6053 53.6603 38.4767 53.2208 38.3975 52.7711C38.3203 52.3212 38.2924 51.8643 38.3142 51.4084C38.3246 51.2348 38.3385 51.0942 38.3541 50.9969C38.3572 50.9458 38.3683 50.8954 38.3871 50.8477C38.401 50.8477 38.3871 51.0646 38.3784 51.4101C38.3732 51.8609 38.4093 52.3112 38.4861 52.7555C38.5627 53.1995 38.6789 53.6358 38.8333 54.0592C38.9565 54.3838 39.0468 54.5782 39.0346 54.5852Z" fill="#455A64"/>
<path d="M39.6457 59.4582C39.62 59.3851 39.602 59.3094 39.5919 59.2326C39.5618 59.0682 39.5236 58.8616 39.4773 58.6128C39.387 58.0695 39.2655 57.3543 39.1301 56.5627C38.8975 55.1097 38.7395 54.1202 38.6666 53.6602C38.761 53.9322 38.8273 54.2131 38.8645 54.4986C38.9652 55.0194 39.0902 55.7468 39.2221 56.547C39.3541 57.3473 39.4634 58.0764 39.5398 58.6024C39.5728 58.8524 39.6023 59.0607 39.6249 59.2273C39.6404 59.3033 39.6474 59.3807 39.6457 59.4582Z" fill="#455A64"/>
<path d="M29.7317 37.8516C29.7317 37.8516 29.1779 41.7557 29.0737 43.1236C29.0112 43.9482 29.848 45.0332 30.4868 45.1217C31.1256 45.2103 33.2782 45.33 33.2782 45.33L33.4518 42.8806L33.3963 42.3928L32.7279 42.2678L32.9293 38.3828L29.7317 37.8516Z" fill="#B78876"/>
<path d="M32.846 38.5156C32.8632 38.5849 32.872 38.656 32.8721 38.7274C32.8825 38.8646 32.8894 39.0625 32.8946 39.309C32.9068 39.7985 32.8946 40.4772 32.853 41.2185C32.8113 41.9598 32.7505 42.642 32.7037 43.128C32.6776 43.3711 32.6568 43.569 32.6394 43.7044C32.6355 43.7756 32.6233 43.8461 32.603 43.9144C32.5951 43.8435 32.5951 43.7719 32.603 43.7009C32.6117 43.5447 32.6238 43.3537 32.6377 43.1211C32.6707 42.6125 32.7123 41.9476 32.7592 41.2116C32.8061 40.4755 32.8234 39.7915 32.8287 39.302C32.8287 39.0729 32.8287 38.8784 32.8287 38.7222C32.8272 38.6529 32.833 38.5837 32.846 38.5156Z" fill="#AA6550"/>
<g opacity="0.3">
<path d="M33.0578 50.1361C34.1514 50.5423 35.3492 50.5753 36.5106 50.4746C37.6719 50.3739 38.8211 50.1395 39.9825 50.0302C41.7425 49.8657 43.5175 49.9829 45.2407 50.3774C45.3609 50.4139 45.4872 50.4257 45.6122 50.4121C45.6742 50.4042 45.7324 50.3778 45.7791 50.3363C45.8259 50.2948 45.8591 50.2401 45.8743 50.1795C45.9055 49.985 45.692 49.8496 45.5115 49.775C43.5246 48.9533 41.3885 48.5537 39.2389 48.6015C37.0894 48.6493 34.9732 49.1435 33.0248 50.0527" fill="black"/>
</g>
<path d="M49.8027 31.7921L43.6366 28.723C42.6643 28.6089 41.6849 28.5659 40.7063 28.5945H36.6251C36.6251 28.5945 31.6811 30.0527 30.8635 31.3981L28.7439 37.7516L32.9345 38.3835L33.4553 42.9491C33.4553 42.9491 32.9345 48.235 32.9345 49.0023C32.9231 49.3577 32.9446 49.7133 32.9987 50.0647C32.9987 50.0647 41.3834 48.7905 43.4474 49.4624C45.5114 50.1342 46.0687 50.0647 46.0687 50.0647C46.0687 50.0647 45.8951 47.8705 45.7441 46.5928L45.2684 40.2219L44.9212 35.3612L48.8011 36.5486L49.8027 31.7921Z" fill="#FF725E"/>
<path d="M32.8963 38.4314C32.8807 38.4314 32.839 38.1693 32.747 37.7457C32.6244 37.1948 32.462 36.6535 32.2609 36.1261C32.0556 35.5947 31.8155 35.0775 31.5422 34.5776L31.2888 34.1228C31.2529 34.069 31.2243 34.0106 31.2037 33.9492C31.2491 33.9959 31.2887 34.0477 31.3218 34.1037C31.393 34.2061 31.4954 34.3572 31.6013 34.5481C31.8943 35.0417 32.1452 35.5591 32.3512 36.0949C32.5543 36.626 32.7088 37.1745 32.813 37.7336C32.8512 37.9471 32.8755 38.1207 32.8876 38.2422C32.8983 38.3047 32.9012 38.3683 32.8963 38.4314Z" fill="#263238"/>
<path d="M40.8036 40.2344C40.8004 40.2637 40.7928 40.2924 40.781 40.3194L40.7029 40.5538C40.6682 40.6562 40.6248 40.7795 40.5675 40.9218C40.5102 41.0642 40.4495 41.2273 40.3696 41.4009C40.2186 41.7481 40.0224 42.1682 39.7759 42.6161C39.5294 43.064 39.2378 43.5396 38.908 44.0222C38.5781 44.5048 38.2136 44.9405 37.8855 45.3259C37.5574 45.7113 37.2293 46.0359 36.9481 46.2998C36.8109 46.4352 36.6773 46.548 36.5644 46.647C36.4516 46.7459 36.3492 46.8345 36.2658 46.9022L36.0714 47.0549C36.0495 47.0742 36.0257 47.091 36.0002 47.1053C36.0002 47.1053 36.0193 47.081 36.061 47.041L36.2433 46.8674C36.3231 46.798 36.4169 46.7095 36.5314 46.6036C36.646 46.4977 36.771 46.3831 36.9047 46.246C37.179 45.9786 37.4914 45.6453 37.823 45.2634C38.1546 44.8815 38.4983 44.4406 38.8351 43.9632C39.1718 43.4858 39.46 43.0084 39.703 42.5744C39.9461 42.1405 40.1526 41.7238 40.3106 41.3749C40.3939 41.2013 40.4582 41.0399 40.5189 40.901C40.5797 40.7621 40.63 40.6406 40.67 40.5399C40.7099 40.4392 40.7376 40.3663 40.7637 40.3108C40.7738 40.2837 40.7872 40.2581 40.8036 40.2344Z" fill="#263238"/>
<path d="M43.6522 29.1445C43.49 29.3765 43.3793 29.6405 43.3276 29.9188C43.2755 30.2203 43.2755 30.5286 43.3276 30.8301C43.3949 31.2013 43.4818 31.5687 43.588 31.9307C43.8015 32.7084 44.0255 33.4011 44.1973 33.901C44.2789 34.1371 44.3466 34.335 44.4022 34.493C44.4309 34.5643 44.453 34.6381 44.4681 34.7135C44.4276 34.6476 44.3939 34.5778 44.3674 34.5051C44.3102 34.3697 44.2286 34.1718 44.1348 33.9236C43.9474 33.4289 43.7113 32.7345 43.4977 31.955C43.3939 31.5915 43.3111 31.2223 43.2495 30.8492C43.1985 30.539 43.2032 30.2222 43.2634 29.9136C43.306 29.7053 43.3872 29.5069 43.5029 29.3285C43.5411 29.2586 43.5917 29.1963 43.6522 29.1445Z" fill="#263238"/>
<path d="M32.0178 35.8283C31.9264 35.9271 31.8136 36.0037 31.688 36.0522C31.393 36.1876 31.0648 36.2336 30.744 36.1846C30.4231 36.1355 30.1237 35.9935 29.8826 35.7762C29.7776 35.693 29.6932 35.5867 29.6361 35.4655C29.6483 35.455 29.7385 35.5783 29.9243 35.7276C30.1659 35.9229 30.4552 36.0505 30.7624 36.0972C31.0695 36.1438 31.3836 36.1079 31.6724 35.9932C31.8859 35.9064 32.0092 35.8161 32.0178 35.8283Z" fill="white"/>
<path d="M43.8345 32.9648C43.8224 33.011 43.8055 33.0558 43.7842 33.0985C43.746 33.1853 43.687 33.3103 43.6019 33.4665C43.3576 33.9096 43.0487 34.3139 42.6853 34.6661C42.1422 35.1932 41.4649 35.5612 40.7272 35.7302C40.2923 35.8299 39.8428 35.8493 39.4009 35.7875C38.9281 35.7123 38.4732 35.5504 38.059 35.3101C37.2067 34.8345 36.4863 34.2321 35.6981 33.9439C35.001 33.6862 34.2425 33.6445 33.5213 33.8241C33.0345 33.9409 32.5752 34.1514 32.169 34.4439C31.8843 34.6539 31.7506 34.8015 31.7437 34.7911C31.8652 34.6519 32.0007 34.5257 32.1481 34.4144C32.6521 34.0325 33.2433 33.7821 33.8682 33.6861C34.4932 33.59 35.1323 33.6512 35.7277 33.8641C36.5349 34.1557 37.2605 34.7598 38.1024 35.2285C38.5066 35.4666 38.9507 35.6289 39.4131 35.7076C39.8449 35.7684 40.2842 35.7508 40.7098 35.6556C41.4345 35.4932 42.1016 35.1374 42.6402 34.6261C43.0048 34.2827 43.3182 33.8887 43.5707 33.4561C43.6592 33.3034 43.7252 33.1801 43.7668 33.0968C43.7859 33.0511 43.8085 33.007 43.8345 32.9648Z" fill="white"/>
<path d="M47.6952 30.7383C47.7295 30.8021 47.7563 30.8697 47.7751 30.9397C47.8323 31.1275 47.8661 31.3216 47.8758 31.5177C47.9094 32.1752 47.7014 32.8224 47.2907 33.337C47.0522 33.6011 46.7934 33.846 46.5165 34.0696C46.2993 34.2518 46.122 34.477 45.9957 34.731C45.9104 34.902 45.8704 35.0921 45.8794 35.283C45.8898 35.4184 45.9193 35.4913 45.9107 35.493C45.902 35.4948 45.8985 35.4774 45.8846 35.4427C45.865 35.3925 45.8516 35.34 45.8447 35.2865C45.8209 35.0878 45.8528 34.8865 45.9367 34.7049C46.0588 34.439 46.2363 34.2022 46.4575 34.0105C46.7269 33.786 46.9804 33.5429 47.2161 33.2832C47.6125 32.7833 47.8219 32.1607 47.8081 31.5229C47.7947 31.2585 47.757 30.9958 47.6952 30.7383Z" fill="white"/>
<path d="M37.6667 45.3741C37.612 45.4033 37.5536 45.4249 37.4931 45.4383C37.3257 45.4862 37.1552 45.5222 36.9827 45.5459C36.7228 45.5891 36.4565 45.5736 36.2033 45.5008C36.0531 45.4531 35.9142 45.3751 35.7953 45.2716C35.6758 45.1581 35.5644 45.0363 35.462 44.9071C35.3616 44.7841 35.2448 44.6755 35.1148 44.5842C34.9912 44.5036 34.8575 44.4394 34.7173 44.3933C34.477 44.3164 34.2231 44.2922 33.9726 44.3221C33.8028 44.3408 33.6373 44.3877 33.483 44.461C33.4274 44.4921 33.3693 44.5188 33.3094 44.5408C33.3549 44.4952 33.4077 44.4577 33.4657 44.4297C33.6193 44.3409 33.7884 44.282 33.9639 44.2561C34.2238 44.2144 34.4899 44.2328 34.7416 44.3099C34.8908 44.3557 35.0328 44.4224 35.1634 44.5078C35.3021 44.6012 35.4262 44.7147 35.5315 44.8446C35.6311 44.9702 35.739 45.0891 35.8543 45.2005C35.9645 45.2972 36.0924 45.3715 36.2311 45.4192C36.473 45.4908 36.7272 45.5114 36.9775 45.48C37.3993 45.4296 37.6632 45.3584 37.6667 45.3741Z" fill="white"/>
<path d="M45.6504 45.0024C45.6339 45.0203 45.6152 45.036 45.5948 45.0493C45.5393 45.0909 45.4813 45.1292 45.4212 45.1639C45.2056 45.2955 44.9715 45.3944 44.7268 45.4573C44.3591 45.5518 43.9765 45.5742 43.6002 45.5232C43.1361 45.4604 42.6954 45.2813 42.3191 45.0024C41.9615 44.7136 41.6196 44.4059 41.2949 44.0806C41.0292 43.8224 40.7216 43.6111 40.3852 43.4557C40.1594 43.3511 39.9137 43.2966 39.6648 43.296C39.4912 43.296 39.3905 43.3255 39.3888 43.3151C39.4109 43.3047 39.4342 43.2971 39.4582 43.2925C39.5252 43.2745 39.5938 43.2634 39.6631 43.2595C39.9196 43.248 40.1755 43.2948 40.4113 43.3967C40.7586 43.5475 41.0765 43.7585 41.3504 44.0199C41.6681 44.3011 41.984 44.6431 42.3729 44.9295C42.7373 45.1974 43.1627 45.3704 43.6106 45.4329C43.977 45.486 44.3501 45.4713 44.7112 45.3895C44.9529 45.3321 45.1862 45.244 45.4056 45.1274C45.4845 45.0808 45.5663 45.039 45.6504 45.0024Z" fill="white"/>
<path d="M45.4815 17.3327C44.2206 16.7296 43.1201 15.8372 42.2694 14.7282C41.4188 13.6192 40.8422 12.325 40.5864 10.9509C40.3307 9.57685 40.4032 8.16181 40.7979 6.82104C41.1926 5.48028 41.8985 4.25171 42.8579 3.2354C43.8174 2.21908 45.0033 1.44377 46.3192 0.972593C47.635 0.501419 49.0436 0.347713 50.4301 0.523992C51.8166 0.700272 53.1418 1.20155 54.2979 1.98701C55.454 2.77246 56.4082 3.81988 57.0828 5.04395C57.9914 6.69008 58.3535 8.58229 58.1169 10.4476C57.8803 12.3128 57.0573 14.0547 55.7666 15.4219C54.4759 16.7891 52.7842 17.7109 50.9356 18.0544C49.087 18.3978 47.1771 18.1451 45.4815 17.3327ZM52.8801 1.85848C51.0993 1.00843 49.0734 0.822551 47.1677 1.33435C45.262 1.84614 43.6018 3.02194 42.4865 4.64976C41.3711 6.27757 40.874 8.25029 41.0848 10.2123C41.2956 12.1742 42.2004 13.9963 43.636 15.3501C45.0717 16.7038 46.9438 17.5002 48.9147 17.5955C50.8857 17.6908 52.8258 17.0788 54.3854 15.8699C55.945 14.661 57.0213 12.9346 57.4204 11.0022C57.8195 9.06969 57.5151 7.05821 56.562 5.33038C55.7274 3.81699 54.4398 2.6029 52.8801 1.85848Z" fill="#263238"/>
<path d="M60.4593 27.0453C60.2101 27.1985 59.9103 27.2467 59.6256 27.1793C59.3409 27.112 59.0945 26.9346 58.9404 26.6859L53.1371 17.2788C53.1106 17.2362 53.1022 17.1849 53.1136 17.136C53.125 17.0872 53.1553 17.0449 53.1978 17.0184L54.4356 16.2546C54.4777 16.2288 54.5282 16.2204 54.5765 16.2311C54.6247 16.2418 54.6669 16.2707 54.6942 16.3119L60.7978 25.4829C60.8818 25.6066 60.9397 25.746 60.9681 25.8928C60.9966 26.0395 60.9949 26.1905 60.9633 26.3366C60.9316 26.4827 60.8706 26.6208 60.784 26.7426C60.6974 26.8644 60.5869 26.9674 60.4593 27.0453Z" fill="#263238"/>
<path d="M45.6949 16.8846C44.4333 16.2818 43.3319 15.3895 42.4806 14.2804C41.6292 13.1712 41.0519 11.8767 40.7957 10.5021C40.5396 9.12755 40.6118 7.71193 41.0064 6.37056C41.4011 5.0292 42.1071 3.80006 43.0668 2.78327C44.0266 1.76649 45.213 0.990829 46.5294 0.519499C47.8458 0.0481685 49.2549 -0.1055 50.6419 0.0710132C52.029 0.247527 53.3547 0.749228 54.511 1.53524C55.6674 2.32125 56.6217 3.36934 57.2962 4.5941C58.2042 6.24034 58.5658 8.13238 58.3291 9.99742C58.0923 11.8625 57.2693 13.6041 55.9789 14.9713C54.6884 16.3384 52.9971 17.2604 51.1488 17.6043C49.3005 17.9482 47.3907 17.6962 45.6949 16.8846ZM53.0935 1.41037C51.3127 0.560322 49.2869 0.374439 47.3811 0.886235C45.4754 1.39803 43.8152 2.57383 42.6999 4.20164C41.5846 5.82946 41.0875 7.80218 41.2983 9.76415C41.509 11.7261 42.4138 13.5482 43.8495 14.902C45.2851 16.2557 47.1572 17.052 49.1281 17.1474C51.0991 17.2427 53.0392 16.6307 54.5988 15.4218C56.1584 14.2128 57.2348 12.4865 57.6339 10.5541C58.033 8.62158 57.7285 6.6101 56.7755 4.88227C55.9408 3.36888 54.6533 2.15479 53.0935 1.41037Z" fill="#455A64"/>
<path d="M53.2511 16.6568L54.8068 15.697L60.978 25.7008C61.0989 25.8967 61.137 26.1326 61.0839 26.3566C61.0308 26.5806 60.891 26.7744 60.695 26.8952L60.6049 26.9508C60.409 27.0717 60.1731 27.1098 59.9491 27.0567C59.7251 27.0036 59.5313 26.8638 59.4105 26.6678L53.2393 16.6641L53.2511 16.6568Z" fill="#455A64"/>
<path d="M42.8966 6.77169C42.9048 6.67902 42.9211 6.58725 42.9452 6.49741C42.9657 6.39049 42.993 6.28496 43.0268 6.18147C43.0661 6.04206 43.1124 5.90474 43.1657 5.77005L43.2542 5.53569C43.2872 5.4541 43.3306 5.37425 43.3705 5.28745C43.4486 5.11386 43.5545 4.94026 43.6604 4.75799C43.9067 4.36703 44.1917 4.00181 44.511 3.66781C44.8363 3.34039 45.1934 3.04614 45.5769 2.78942C45.7453 2.6795 45.9191 2.57811 46.0977 2.48563C46.181 2.44223 46.2609 2.3971 46.3407 2.36064L46.5733 2.26169C46.706 2.20468 46.8416 2.15485 46.9796 2.1124C47.0822 2.07544 47.1872 2.04528 47.2938 2.02213C47.3832 1.99676 47.4742 1.97762 47.5663 1.96484C47.4807 2.00099 47.3925 2.03058 47.3024 2.05338C47.1981 2.08213 47.0955 2.11691 46.9952 2.15753C46.8599 2.2037 46.7272 2.25701 46.5977 2.31724L46.3702 2.41966C46.2904 2.45612 46.2123 2.50299 46.1307 2.54639C45.9571 2.63145 45.7974 2.74255 45.6186 2.85365C45.2443 3.10878 44.8955 3.39945 44.577 3.72163C44.2618 4.05097 43.9787 4.40962 43.7316 4.79271C43.6257 4.9663 43.5181 5.1399 43.4382 5.31349C43.3983 5.39682 43.3532 5.47493 43.3184 5.55479L43.2212 5.78567C43.1553 5.92975 43.1153 6.06863 43.0719 6.18841C43.0347 6.29007 43.0034 6.39383 42.9782 6.49915C42.9583 6.59203 42.931 6.68317 42.8966 6.77169Z" fill="#E0E0E0"/>
</svg>
