<svg width="25" height="22" viewBox="0 0 25 22" fill="none" xmlns="http://www.w3.org/2000/svg">
<path d="M12.7865 2.96875C9.44562 2.96875 6.73056 5.37054 6.73056 8.32589V10.9063C6.73056 11.4509 6.46813 12.2812 6.15525 12.7455L4.99453 14.4509C4.27792 15.5045 4.77248 16.6741 6.08459 17.067C10.4347 18.3527 15.1281 18.3527 19.4782 17.067C20.6995 16.7098 21.2344 15.433 20.5683 14.4509L19.4076 12.7455C19.1048 12.2812 18.8424 11.4509 18.8424 10.9063V8.32589C18.8424 5.37946 16.1172 2.96875 12.7865 2.96875Z" stroke="white" stroke-width="1.5" stroke-miterlimit="10" stroke-linecap="round"/>
<path d="M14.6537 3.22656C14.3408 3.14621 14.0178 3.08371 13.6847 3.04799C12.7158 2.94085 11.7872 3.00335 10.9192 3.22656C11.2119 2.56585 11.9386 2.10156 12.7864 2.10156C13.6343 2.10156 14.361 2.56585 14.6537 3.22656Z" stroke="white" stroke-width="1.5" stroke-miterlimit="10" stroke-linecap="round" stroke-linejoin="round"/>
<path d="M15.8143 17.3828C15.8143 18.856 14.4517 20.0614 12.7864 20.0614C11.9587 20.0614 11.1917 19.7578 10.6466 19.2757C10.1016 18.7935 9.75842 18.115 9.75842 17.3828" stroke="white" stroke-width="1.5" stroke-miterlimit="10"/>
</svg>
