<svg width="20" height="20" viewBox="0 0 20 20" fill="none" xmlns="http://www.w3.org/2000/svg">
<path d="M19 10.0018C19.0028 11.7886 18.4714 13.5354 17.474 15.0178C16.6514 16.2448 15.5391 17.2502 14.2356 17.9451C12.932 18.64 11.4772 19.0029 10 19.0018C8.52277 19.0029 7.06804 18.64 5.76444 17.9451C4.46085 17.2502 3.34858 16.2448 2.526 15.0178C1.74273 13.8502 1.2439 12.5154 1.06951 11.1203C0.895109 9.72514 1.05 8.30857 1.52175 6.9841C1.9935 5.65963 2.769 4.46411 3.78607 3.49337C4.80314 2.52264 6.0335 1.80369 7.37851 1.39416C8.72352 0.98463 10.1458 0.895915 11.5312 1.13512C12.9167 1.37434 14.2269 1.93482 15.3567 2.77164C16.4865 3.60846 17.4046 4.69834 18.0373 5.95392C18.67 7.2095 18.9997 8.59584 19 10.0018Z" stroke="white"/>
<path d="M11.5 7C11.5 7.39782 11.342 7.77936 11.0607 8.06066C10.7794 8.34196 10.3978 8.5 10 8.5V9.5C10.3283 9.5 10.6534 9.43534 10.9567 9.3097C11.26 9.18406 11.5356 8.99991 11.7678 8.76777C11.9999 8.53562 12.1841 8.26002 12.3097 7.95671C12.4353 7.65339 12.5 7.3283 12.5 7H11.5ZM10 8.5C9.60218 8.5 9.22065 8.34196 8.93935 8.06066C8.65804 7.77936 8.50001 7.39782 8.50001 7H7.50001C7.50001 7.3283 7.56467 7.65339 7.69031 7.95671C7.81595 8.26002 8.0001 8.53562 8.23224 8.76777C8.70108 9.23661 9.33697 9.5 10 9.5V8.5ZM8.50001 7C8.50001 6.60218 8.65804 6.22064 8.93935 5.93934C9.22065 5.65804 9.60218 5.5 10 5.5V4.5C9.33697 4.5 8.70108 4.76339 8.23224 5.23223C7.7634 5.70107 7.50001 6.33696 7.50001 7H8.50001ZM10 5.5C10.3978 5.5 10.7794 5.65804 11.0607 5.93934C11.342 6.22064 11.5 6.60218 11.5 7H12.5C12.5 6.33696 12.2366 5.70107 11.7678 5.23223C11.2989 4.76339 10.663 4.5 10 4.5V5.5ZM3.16601 15.856L2.68601 15.714L2.60901 15.975L2.78601 16.182L3.16601 15.856ZM16.834 15.856L17.214 16.182L17.391 15.975L17.313 15.714L16.834 15.856ZM7.00001 13.5H13V12.5H7.00001V13.5ZM7.00001 12.5C6.03086 12.4999 5.08757 12.8126 4.31046 13.3917C3.53336 13.9708 2.96297 14.7853 2.68601 15.714L3.64501 15.999C3.86058 15.2767 4.30357 14.6434 4.90806 14.1931C5.51255 13.7428 6.24625 13.4997 7.00001 13.5V12.5ZM10 18.5C8.77328 18.5013 7.56086 18.2364 6.44644 17.7237C5.33201 17.2109 4.34209 16.4625 3.54501 15.53L2.78601 16.182C3.67706 17.2238 4.78344 18.0599 6.02888 18.6327C7.27431 19.2055 8.62916 19.5014 10 19.5V18.5ZM13 13.5C13.7539 13.4998 14.4877 13.743 15.0922 14.1935C15.6967 14.6439 16.1396 15.2775 16.355 16L17.313 15.714C17.036 14.7853 16.4667 13.9708 15.6896 13.3917C14.9124 12.8126 13.9692 12.4999 13 12.5V13.5ZM16.455 15.53C15.6579 16.4625 14.668 17.2109 13.5536 17.7237C12.4392 18.2364 11.2267 18.5013 10 18.5V19.5C11.3709 19.5014 12.7257 19.2055 13.9711 18.6327C15.2166 18.0599 16.323 17.2238 17.214 16.182L16.455 15.53Z" fill="white"/>
</svg>
