<svg width="21" height="21" viewBox="0 0 21 21" fill="none" xmlns="http://www.w3.org/2000/svg">
<path fill-rule="evenodd" clip-rule="evenodd" d="M3.325 9.5H6.705C6.826 9.5 7.025 9.5 7.207 9.516C7.432 9.536 7.816 9.592 8.222 9.819C8.62443 10.0443 8.95668 10.3766 9.182 10.779C9.408 11.184 9.464 11.568 9.484 11.793C9.501 11.976 9.5 12.174 9.5 12.295V17.705C9.5 17.826 9.5 18.025 9.484 18.207C9.464 18.432 9.409 18.816 9.181 19.222C8.95568 19.6244 8.62343 19.9567 8.221 20.182C7.90842 20.3539 7.56267 20.4568 7.207 20.484C7.024 20.5 6.826 20.5 6.705 20.5H3.295C3.175 20.5 2.975 20.5 2.793 20.484C2.43725 20.4565 2.0915 20.3532 1.779 20.181C1.37657 19.9557 1.04432 19.6234 0.819 19.221C0.646796 18.9085 0.543482 18.5627 0.516 18.207C0.5 18.024 0.5 17.826 0.5 17.705V12.295C0.5 12.175 0.5 11.975 0.516 11.793C0.536 11.568 0.592 11.184 0.819 10.779C1.04432 10.3766 1.37657 10.0443 1.779 9.819C2.0915 9.6468 2.43725 9.54348 2.793 9.516C2.976 9.5 3.174 9.5 3.295 9.5H3.325ZM2.564 11.756C2.5 11.87 2.5 12.02 2.5 12.326V17.676C2.5 17.979 2.5 18.131 2.564 18.244C2.60906 18.3245 2.67551 18.3909 2.756 18.436C2.87 18.5 3.021 18.5 3.325 18.5H6.675C6.979 18.5 7.131 18.5 7.245 18.436C7.32512 18.3908 7.39121 18.3244 7.436 18.244C7.5 18.131 7.5 17.98 7.5 17.675V12.325C7.5 12.021 7.5 11.87 7.436 11.755C7.39079 11.6749 7.32435 11.6088 7.244 11.564C7.131 11.5 6.98 11.5 6.675 11.5H3.325C3.021 11.5 2.87 11.5 2.755 11.564C2.67488 11.6092 2.60879 11.6756 2.564 11.756ZM3.325 0.5H6.705C6.826 0.5 7.025 0.5 7.207 0.516C7.432 0.536 7.816 0.592 8.222 0.819C8.62443 1.04432 8.95668 1.37657 9.182 1.779C9.408 2.184 9.464 2.568 9.484 2.793C9.501 2.976 9.5 3.174 9.5 3.295V5.705C9.5 5.826 9.5 6.025 9.484 6.207C9.464 6.432 9.409 6.816 9.181 7.222C8.95568 7.62443 8.62343 7.95668 8.221 8.182C7.90842 8.35386 7.56267 8.45683 7.207 8.484C7.024 8.501 6.826 8.5 6.705 8.5H3.295C3.175 8.5 2.975 8.5 2.793 8.484C2.43725 8.45652 2.0915 8.3532 1.779 8.181C1.37657 7.95568 1.04432 7.62343 0.819 7.221C0.646796 6.9085 0.543482 6.56275 0.516 6.207C0.5 6.024 0.5 5.826 0.5 5.705V3.295C0.5 3.175 0.5 2.975 0.516 2.793C0.536 2.568 0.592 2.184 0.819 1.779C1.04432 1.37657 1.37657 1.04432 1.779 0.819C2.0915 0.646796 2.43725 0.543482 2.793 0.516C2.976 0.5 3.174 0.5 3.295 0.5H3.325ZM2.564 2.756C2.5 2.87 2.5 3.02 2.5 3.325V5.675C2.5 5.979 2.5 6.131 2.564 6.245C2.60921 6.32512 2.67565 6.39121 2.756 6.436C2.87 6.5 3.02 6.5 3.325 6.5H6.675C6.979 6.5 7.131 6.5 7.245 6.436C7.32512 6.39079 7.39121 6.32435 7.436 6.244C7.5 6.131 7.5 5.98 7.5 5.675V3.325C7.5 3.021 7.5 2.87 7.436 2.755C7.39079 2.67488 7.32435 2.60879 7.244 2.564C7.131 2.5 6.98 2.5 6.675 2.5H3.325C3.021 2.5 2.87 2.5 2.755 2.564C2.67488 2.60921 2.60879 2.67565 2.564 2.756ZM14.325 11.5H17.705C17.826 11.5 18.025 11.5 18.207 11.484C18.432 11.464 18.816 11.409 19.222 11.181C19.6244 10.9557 19.9567 10.6234 20.182 10.221C20.409 9.816 20.464 9.432 20.484 9.207C20.5 9.024 20.5 8.826 20.5 8.705V3.295C20.5 3.175 20.5 2.975 20.484 2.793C20.4565 2.43725 20.3532 2.0915 20.181 1.779C19.9557 1.37657 19.6234 1.04432 19.221 0.819C18.9085 0.646796 18.5627 0.543482 18.207 0.516C18.024 0.5 17.826 0.5 17.705 0.5H14.295C14.175 0.5 13.975 0.5 13.793 0.516C13.568 0.536 13.184 0.592 12.779 0.819C12.3766 1.04432 12.0443 1.37657 11.819 1.779C11.6468 2.0915 11.5435 2.43725 11.516 2.793C11.5 2.976 11.5 3.174 11.5 3.295V8.705C11.5 8.826 11.5 9.025 11.516 9.207C11.536 9.432 11.592 9.816 11.819 10.222C12.0443 10.6244 12.3766 10.9567 12.779 11.182C13.184 11.408 13.568 11.464 13.793 11.484C13.976 11.501 14.174 11.5 14.295 11.5H14.325ZM13.564 9.244C13.5 9.13 13.5 8.98 13.5 8.675V3.325C13.5 3.021 13.5 2.87 13.564 2.755C13.6092 2.67488 13.6756 2.60879 13.756 2.564C13.87 2.5 14.02 2.5 14.326 2.5H17.676C17.979 2.5 18.131 2.5 18.244 2.564C18.3245 2.60906 18.3909 2.67551 18.436 2.756C18.5 2.87 18.5 3.021 18.5 3.325V8.675C18.5 8.979 18.5 9.13 18.436 9.245C18.3908 9.32512 18.3244 9.39121 18.244 9.436C18.131 9.5 17.979 9.5 17.675 9.5H14.325C14.021 9.5 13.87 9.5 13.755 9.436C13.6749 9.39079 13.6088 9.32435 13.564 9.244ZM14.325 20.5H17.705C17.826 20.5 18.025 20.5 18.207 20.484C18.432 20.464 18.816 20.408 19.222 20.181C19.6244 19.9557 19.9567 19.6234 20.182 19.221C20.409 18.816 20.464 18.432 20.484 18.207C20.5 18.024 20.5 17.826 20.5 17.705V15.295C20.5 15.175 20.5 14.975 20.484 14.793C20.4565 14.4372 20.3532 14.0915 20.181 13.779C19.9557 13.3766 19.6234 13.0443 19.221 12.819C18.9085 12.6468 18.5627 12.5435 18.207 12.516C18.024 12.5 17.826 12.5 17.705 12.5H14.295C14.175 12.5 13.975 12.5 13.793 12.516C13.568 12.536 13.184 12.592 12.779 12.819C12.3766 13.0443 12.0443 13.3766 11.819 13.779C11.6468 14.0915 11.5435 14.4372 11.516 14.793C11.5 14.976 11.5 15.174 11.5 15.295V17.705C11.5 17.826 11.5 18.025 11.516 18.207C11.536 18.432 11.592 18.816 11.819 19.222C12.0443 19.6244 12.3766 19.9567 12.779 20.182C13.184 20.409 13.568 20.464 13.793 20.484C13.976 20.5 14.174 20.5 14.295 20.5H14.325ZM13.564 18.244C13.5 18.131 13.5 17.98 13.5 17.675V15.325C13.5 15.021 13.5 14.87 13.564 14.755C13.6092 14.6749 13.6756 14.6088 13.756 14.564C13.87 14.5 14.021 14.5 14.326 14.5H17.676C17.979 14.5 18.131 14.5 18.244 14.564C18.324 14.609 18.391 14.675 18.436 14.756C18.5 14.87 18.5 15.021 18.5 15.326V17.676C18.5 17.979 18.5 18.131 18.436 18.244C18.3909 18.3245 18.3245 18.3909 18.244 18.436C18.131 18.5 17.979 18.5 17.675 18.5H14.325C14.021 18.5 13.87 18.5 13.755 18.436C13.6749 18.3908 13.6088 18.3244 13.564 18.244Z" fill="white"/>
</svg>
