<svg width="24" height="25" viewBox="0 0 24 25" fill="none" xmlns="http://www.w3.org/2000/svg">
    <path d="M11.998 3.78906C17.0237 3.78906 21.0984 7.86306 21.0986 12.8887C21.0986 17.9145 17.0238 21.9893 11.998 21.9893C6.97244 21.989 2.89844 17.9143 2.89844 12.8887C2.89865 7.86319 6.97257 3.78927 11.998 3.78906ZM11.998 13.5889C9.37478 13.589 7.11568 15.1433 6.08887 17.3789L5.9541 17.6709L6.16406 17.9141C7.57527 19.551 9.66584 20.5888 11.998 20.5889C14.3304 20.5889 16.4217 19.5511 17.833 17.9141L18.042 17.6709L17.9082 17.3789C16.8814 15.1432 14.6215 13.5889 11.998 13.5889ZM11.998 6.38867C10.3966 6.38888 9.09863 7.68757 9.09863 9.28906C9.09863 10.8906 10.3966 12.1892 11.998 12.1895C13.5997 12.1895 14.8984 10.8907 14.8984 9.28906C14.8984 7.68744 13.5997 6.38867 11.998 6.38867Z" stroke="#5454FF"/>
</svg>
