<svg width="12" height="12" viewBox="0 0 12 12" fill="none" xmlns="http://www.w3.org/2000/svg">
<path d="M6.00063 8.00063C5.8838 8.00085 5.77058 7.96017 5.68063 7.88563L2.68063 5.38563C2.57852 5.30076 2.51431 5.1788 2.50212 5.04659C2.48993 4.91437 2.53076 4.78273 2.61563 4.68063C2.7005 4.57852 2.82245 4.51431 2.95466 4.50212C3.08688 4.48993 3.21852 4.53076 3.32063 4.61563L6.00063 6.85563L8.68063 4.69563C8.73177 4.65409 8.79062 4.62308 8.85379 4.60436C8.91696 4.58565 8.9832 4.5796 9.04872 4.58657C9.11423 4.59354 9.17772 4.61339 9.23554 4.64497C9.29336 4.67656 9.34437 4.71926 9.38563 4.77063C9.43142 4.82204 9.4661 4.88235 9.48749 4.94779C9.50889 5.01322 9.51654 5.08237 9.50997 5.15091C9.5034 5.21944 9.48274 5.28587 9.4493 5.34605C9.41586 5.40623 9.37035 5.45885 9.31563 5.50063L6.31563 7.91563C6.22308 7.97838 6.11218 8.00831 6.00063 8.00063Z" fill="black"/>
</svg>
