<svg width="24" height="25" viewBox="0 0 24 25" fill="none" xmlns="http://www.w3.org/2000/svg">
    <path d="M10.3246 5.20793C10.751 3.45152 13.249 3.45152 13.6754 5.20793C13.9508 6.34255 15.2507 6.881 16.2478 6.27347C17.7913 5.33302 19.5576 7.09933 18.6172 8.64281C18.0096 9.63988 18.5481 10.9398 19.6827 11.2153C21.4391 11.6417 21.4391 14.1396 19.6827 14.566C18.5481 14.8414 18.0096 16.1414 18.6172 17.1384C19.5576 18.6819 17.7913 20.4482 16.2478 19.5078C15.2507 18.9003 13.9508 19.4387 13.6754 20.5733C13.249 22.3297 10.751 22.3297 10.3246 20.5733C10.0492 19.4387 8.74926 18.9003 7.75219 19.5078C6.2087 20.4482 4.44239 18.6819 5.38285 17.1384C5.99038 16.1414 5.45193 14.8414 4.31731 14.566C2.5609 14.1396 2.5609 11.6417 4.31731 11.2153C5.45193 10.9398 5.99037 9.63988 5.38285 8.64281C4.44239 7.09933 6.2087 5.33301 7.75219 6.27347C8.74926 6.881 10.0492 6.34255 10.3246 5.20793Z" stroke="#5454FF" stroke-width="2" stroke-linecap="round" stroke-linejoin="round"/>
    <path d="M15 12.8906C15 14.5475 13.6569 15.8906 12 15.8906C10.3431 15.8906 9 14.5475 9 12.8906C9 11.2338 10.3431 9.89062 12 9.89062C13.6569 9.89062 15 11.2338 15 12.8906Z" stroke="#5454FF" stroke-width="2" stroke-linecap="round" stroke-linejoin="round"/>
</svg>
