<svg width="20" height="19" viewBox="0 0 20 19" fill="none" xmlns="http://www.w3.org/2000/svg">
    <path d="M9 18.3906V16.3906H17V9.29062C17 7.34062 16.321 5.68663 14.963 4.32863C13.605 2.97063 11.9507 2.29129 10 2.29063C8.04933 2.28996 6.39533 2.96929 5.038 4.32863C3.68067 5.68796 3.00133 7.34196 3 9.29062V15.3906H2C1.45 15.3906 0.979333 15.195 0.588 14.8036C0.196667 14.4123 0.000666667 13.9413 0 13.3906V11.3906C0 11.0406 0.0876667 10.7116 0.263 10.4036C0.438333 10.0956 0.684 9.84962 1 9.66562L1.075 8.34062C1.20833 7.20729 1.53767 6.15729 2.063 5.19063C2.58833 4.22396 3.24667 3.38229 4.038 2.66563C4.82933 1.94896 5.73733 1.39062 6.762 0.990625C7.78667 0.590625 8.866 0.390625 10 0.390625C11.134 0.390625 12.209 0.590625 13.225 0.990625C14.241 1.39062 15.1493 1.94496 15.95 2.65363C16.7507 3.36229 17.409 4.19963 17.925 5.16563C18.441 6.13163 18.7743 7.18163 18.925 8.31563L19 9.61563C19.3167 9.76562 19.5627 9.99062 19.738 10.2906C19.9133 10.5906 20.0007 10.9073 20 11.2406V13.5406C20 13.874 19.9127 14.1906 19.738 14.4906C19.5633 14.7906 19.3173 15.0156 19 15.1656V16.3906C19 16.9406 18.8043 17.4116 18.413 17.8036C18.0217 18.1956 17.5507 18.3913 17 18.3906H9ZM7 11.3906C6.71667 11.3906 6.47933 11.2946 6.288 11.1026C6.09667 10.9106 6.00067 10.6733 6 10.3906C5.99933 10.108 6.09533 9.87063 6.288 9.67863C6.48067 9.48662 6.718 9.39062 7 9.39062C7.282 9.39062 7.51967 9.48662 7.713 9.67863C7.90633 9.87063 8.002 10.108 8 10.3906C7.998 10.6733 7.902 10.911 7.712 11.1036C7.522 11.2963 7.28467 11.392 7 11.3906ZM13 11.3906C12.7167 11.3906 12.4793 11.2946 12.288 11.1026C12.0967 10.9106 12.0007 10.6733 12 10.3906C11.9993 10.108 12.0953 9.87063 12.288 9.67863C12.4807 9.48662 12.718 9.39062 13 9.39062C13.282 9.39062 13.5197 9.48662 13.713 9.67863C13.9063 9.87063 14.002 10.108 14 10.3906C13.998 10.6733 13.902 10.911 13.712 11.1036C13.522 11.2963 13.2847 11.392 13 11.3906ZM4.025 9.84062C3.90833 8.07396 4.44167 6.55729 5.625 5.29063C6.80833 4.02396 8.28333 3.39062 10.05 3.39062C11.5333 3.39062 12.8377 3.86129 13.963 4.80263C15.0883 5.74396 15.7673 6.94863 16 8.41663C14.4833 8.39929 13.0877 7.99063 11.813 7.19063C10.5383 6.39062 9.559 5.30729 8.875 3.94063C8.60833 5.27396 8.046 6.46163 7.188 7.50362C6.33 8.54562 5.27567 9.32463 4.025 9.84062Z" fill="#5454FF"/>
</svg>
