<svg width="24" height="24" viewBox="0 0 24 24" fill="none" xmlns="http://www.w3.org/2000/svg">
<path d="M5.63597 5.636C4.16363 7.10833 3.24734 9.04562 3.04324 11.1178C2.83913 13.19 3.35984 15.2688 4.51663 17.0001C5.67343 18.7314 7.39473 20.008 9.38727 20.6124C11.3798 21.2169 13.5203 21.1117 15.444 20.3149C17.3677 19.5181 18.9556 18.079 19.9372 16.2426C20.9187 14.4063 21.2332 12.2864 20.827 10.2443C20.4208 8.20207 19.319 6.3639 17.7095 5.04295C16.0999 3.72201 14.0822 3.00002 12 3V5M12 12L5.99997 6M21 12H19M12 19V21M4.99997 12H2.99997" stroke="white" stroke-width="2" stroke-linecap="round"/>
</svg>
